<?xml version="1.0" encoding="utf-8"?>
<!-- Generator: Adobe Illustrator 22.1.0, SVG Export Plug-In . SVG Version: 6.00 Build 0)  -->
<svg version="1.1" id="Layer_1" xmlns="http://www.w3.org/2000/svg" xmlns:xlink="http://www.w3.org/1999/xlink" x="0px" y="0px"
	 viewBox="0 0 64 64" style="enable-background:new 0 0 64 64;" xml:space="preserve">
<style type="text/css">
	.st0{fill:#77C044;}
	.st1{fill:#F59521;}
	.st2{fill:#00AEEF;}
	.st3{fill:#3255A6;}
	.st4{fill:#FFFFFF;}
	.st5{fill:none;stroke:#77C044;stroke-width:2;stroke-miterlimit:10;}
	.st6{fill:#00AEEF;stroke:#FFFFFF;stroke-miterlimit:10;}
	.st7{fill:#77C044;stroke:#FFFFFF;stroke-miterlimit:10;}
</style>
<g>
	<g>
		<path class="st0" d="M5.2,54.8c-0.8,0-1.7,0-2.5,0c-0.2,0-0.5-0.2-0.5-0.4c-0.8-2-1.5-4-1.5-6.2c0-2.9,1.2-4.5,4-5.2
			c2.3-0.6,4.6-1,6.8-1.7c1.6-0.5,3.1-1.3,4.5-2.2c3.4-2.3,6.8-4.3,10.7-5.5c2.8-0.9,5.6-1.3,8.6-1.4c8.6-0.2,16.2,2.4,22.6,8.1
			c1.6,1.4,2.8,3.2,3.6,5.1c0.2,0.4,0.2,0.9,0.4,1.3c0.2,0.7,0.7,1.1,1.4,1.2c0.5,0.1,0.7,0.4,0.7,1c0,1.4,0,2.8,0,4.1
			c0,1-0.7,1.7-1.7,1.8c-1.2,0.1-2.4,0-3.6,0c-0.6,0-0.5-0.5-0.5-0.8c0-2.3-0.9-4.2-2.6-5.7c-4.1-3.5-10.6-1.4-11.9,3.8
			c-0.2,0.6-0.3,1.3-0.2,1.9c0,0.7-0.2,0.7-0.8,0.7c-4.1,0-8.1,0-12.2,0c-3.1,0-6.3,0-9.4,0c-0.6,0-0.8-0.1-0.8-0.7
			c0-3.5-2.4-6.6-5.9-7.3c-4.2-0.8-7.8,1.6-8.7,5.5C5.4,53,5.3,53.9,5.2,54.8z M29.4,42.3C29.4,42.3,29.4,42.3,29.4,42.3
			c0.5,0,1,0,1.5,0c2.7,0,5.3,0,8,0c0.7,0,0.9-0.3,0.8-0.9c0-0.2,0-0.4-0.1-0.6c-0.3-1.8-0.6-3.5-0.8-5.3c-0.1-0.7-0.4-1-1.1-1
			c-1.6,0-3.1,0-4.7,0.1c-1.9,0-3.8,0-5.6,0.7c-1.6,0.6-3.2,1.4-4.8,2.2c-1,0.5-2.1,1-3.1,1.6c-1,0.5-0.8,1.3-0.6,2.6
			c0.1,0.8,0.9,0.6,1.4,0.6C23.4,42.3,26.4,42.3,29.4,42.3z M40.3,34.7c0,0.3,0,0.6,0,0.8c0.4,2,0.8,4,1,6.1c0.1,0.7,0.4,0.8,1,0.8
			c1.7,0,3.4,0,5.1,0c1.7,0,3.5,0,5.2,0c0.8,0,1.2-0.3,1-1.1c-0.1-0.5-0.5-1.1-0.9-1.5c-1.2-0.9-2.5-1.8-3.8-2.5
			C46.3,35.7,43.4,35.1,40.3,34.7z"/>
		<path class="st2" d="M18.9,13.4c-1.2-0.3-2.3-0.5-3.3-0.9c-1.2-0.4-2-1.3-2.6-2.4c-0.5-1.1-1-2.2-1.5-3.3
			c-0.3-0.6-0.2-1.1,0.3-1.5c1.1-0.8,2.2-1.1,2.9,0.5c0.2,0.5,0.5,1,0.7,1.6c0.7,1.9,2.2,2.7,4.1,2.8c0.9,0.1,1.7,0.1,2.6,0.2
			c1.9,0.2,3.4,1.2,4.4,2.8c1.3,2,2.4,4.3,3.8,6.3c1.2,1.9,0.9,3.5-0.4,5.1c-1,1.2-1.9,2.5-2.9,3.7c-0.9,1.2-2,1.2-3,0
			c-0.4-0.5-0.5-0.9-0.1-1.4c0.6-0.8,1.3-1.6,1.9-2.4c0.5-0.7,1-1.4,1.4-2.2c0.4-0.8-0.5-2.9-1.3-3.2c-0.6-0.3-1.2-0.1-1.6,0.4
			c-0.6,0.7-1.1,1.5-1.6,2.3c-0.7,1-1.4,2-2.3,2.8c-1,1-2.3,1.2-3.7,0.6c-0.3-0.1-0.8-0.1-1.1,0.1c-1.4,0.9-2.7,1.8-4,2.8
			c-1.2,1-1.6,2.5-2.2,3.9c-0.3,0.7-0.5,1.4-0.8,2.1c-0.4,0.9-1.4,1.4-2.2,1.2c-1.2-0.3-1.9-1.2-1.7-2.3c0.4-3,1.7-5.5,3.9-7.5
			c1.2-1.1,2.6-2.1,4-3.1c-1.5-1.1-3.1-2.1-5.1-1.8c-0.6,0.1-1.2,0.4-1.8,0.7c-0.9,0.5-1.7,1-2.6,1.5c-1.4,0.7-3.1-0.4-2.9-2
			c0-0.4,0.3-0.9,0.6-1.1c2.1-1.2,4.2-2.4,6.3-3.5c1.3-0.6,2.7-0.4,4,0.3c1,0.6,2.1,1.3,3.2,1.9c0.2,0.1,0.6,0.1,0.7,0
			c1.3-1.5,2.5-3,3.8-4.6C18.9,13.6,18.9,13.5,18.9,13.4z"/>
		<path class="st1" d="M47,15.9c-1.2,0.4-2.3,0.8-3.5,1.3c-0.6,0.2-1.2,0.5-1.8,0.7c-1.1,0.3-1.7-0.1-1.7-1.3c0-0.8,0.1-1.5,0.1-2.3
			c0-0.2,0-0.4,0-0.7c-0.1,0-0.1,0-0.2,0c-0.4,0.6-0.7,1.2-1.1,1.7c-0.6,1-1.1,1.9-1.8,2.9c-0.3,0.5-0.7,0.9-1.4,0.7
			c-0.8-0.2-1.1-0.9-0.6-1.7c0.9-1.6,1.9-3.3,2.9-4.9c0.9-1.5,1.8-3,2.7-4.4c0.3-0.6,0.8-1,1.5-0.8c0.7,0.2,0.8,0.8,0.8,1.4
			c-0.1,1.9-0.3,3.8-0.4,5.6c-0.1,0.8,0,0.9,0.8,0.6c2.6-0.9,5.2-1.9,7.8-2.8c1-0.4,2.1-0.8,3.1-1.1c0.8-0.3,1.3-0.2,1.7,0.4
			c0.4,0.6,0.2,1.1-0.5,1.7c-1.6,1.2-3.2,2.4-4.7,3.6c-1.7,1.3-3.5,2.6-5.2,3.9c-0.5,0.3-0.4,0.6-0.1,1c1.5,1.8,3,3.5,4.5,5.3
			c0.2,0.2,0.4,0.4,0.5,0.7c0.1,0.4,0.2,1,0,1.2C50,28.8,49.4,29.1,49,29c-1-0.2-2-0.6-3.1-1c-2.6-0.9-5.2-1.9-7.7-2.9
			c-0.4-0.2-0.9-0.5-1-0.9c-0.4-0.9,0.5-1.7,1.5-1.4c1,0.3,1.9,0.7,2.8,1c1.1,0.4,2.2,0.8,3.2,1.2c0.1,0,0.3,0,0.6,0
			c-0.8-0.9-1.5-1.8-2.1-2.6c-0.2-0.3-0.5-0.5-0.7-0.8c-0.8-0.9-0.7-1.5,0.3-2.3c1.2-0.9,2.5-1.9,3.7-2.8c0.2-0.2,0.4-0.4,0.6-0.6
			C47.1,16,47,15.9,47,15.9z"/>
		<path class="st0" d="M50.7,48.8c2.8-0.1,5.3,2.3,5.3,5.1c0,2.9-2.4,5.3-5.3,5.3c-3,0-5.2-2.3-5.2-5.3C45.4,51,48,48.6,50.7,48.8z
			 M48.1,54c0,1.4,1.1,2.6,2.6,2.6c1.4,0,2.5-1,2.6-2.6c0-1.4-1.2-2.6-2.6-2.6C49.3,51.4,48.1,52.6,48.1,54z"/>
		<path class="st0" d="M12.7,48.8c3,0,5.2,2.3,5.2,5.2c0,2.9-2.4,5.2-5.2,5.2c-2.9,0-5.3-2.4-5.3-5.3C7.5,51,9.8,48.8,12.7,48.8z
			 M15.3,53.9c0-1.5-1.1-2.6-2.6-2.6c-1.4,0-2.5,1.1-2.5,2.6c0,1.4,1.1,2.6,2.5,2.7C14.1,56.6,15.3,55.4,15.3,53.9z"/>
		<path class="st2" d="M26.3,10.2c0-1.7,2.1-4,3.8-4.2c1.3-0.1,2.8,1.1,3.1,2.6c0.4,1.8-0.1,2.8-1.9,3.5c-1.1,0.4-2.2,0.7-3.4,0.3
			C26.9,12,26.3,11.3,26.3,10.2z"/>
	</g>
	<path class="st4" d="M29.4,42.3c-3,0-6,0-9,0c-0.6,0-1.3,0.1-1.4-0.6c-0.2-1.4-0.4-2.1,0.6-2.6c1-0.5,2-1.1,3.1-1.6
		c1.6-0.8,3.1-1.5,4.8-2.2c1.8-0.7,3.7-0.6,5.6-0.7c1.6,0,3.1,0,4.7-0.1c0.7,0,1,0.3,1.1,1c0.2,1.8,0.5,3.5,0.8,5.3
		c0,0.2,0,0.4,0.1,0.6c0.1,0.6-0.1,0.9-0.8,0.9c-2.7,0-5.3,0-8,0C30.4,42.3,29.9,42.3,29.4,42.3C29.4,42.3,29.4,42.3,29.4,42.3z"/>
	<path class="st4" d="M40.3,34.7c3.1,0.4,6,1,8.6,2.5c1.3,0.7,2.6,1.6,3.8,2.5c0.4,0.3,0.8,0.9,0.9,1.5c0.2,0.8-0.1,1.1-1,1.1
		c-1.7,0-3.5,0-5.2,0c-1.7,0-3.4,0-5.1,0c-0.6,0-0.9-0.1-1-0.8c-0.3-2-0.7-4-1-6.1C40.3,35.2,40.3,35,40.3,34.7z"/>
	<path class="st4" d="M48.1,54c0-1.4,1.2-2.6,2.6-2.6c1.4,0,2.6,1.1,2.6,2.6c0,1.6-1.1,2.6-2.6,2.6C49.2,56.6,48.1,55.3,48.1,54z"/>
	<path class="st4" d="M15.3,53.9c0,1.5-1.2,2.7-2.6,2.7c-1.4,0-2.5-1.2-2.5-2.7c0-1.5,1.1-2.6,2.5-2.6
		C14.2,51.4,15.3,52.5,15.3,53.9z"/>
</g>
</svg>
