<?xml version="1.0" encoding="utf-8"?>
<!-- Generator: Adobe Illustrator 22.1.0, SVG Export Plug-In . SVG Version: 6.00 Build 0)  -->
<svg version="1.1" id="Layer_1" xmlns="http://www.w3.org/2000/svg" xmlns:xlink="http://www.w3.org/1999/xlink" x="0px" y="0px"
	 viewBox="0 0 64 64" style="enable-background:new 0 0 64 64;" xml:space="preserve">
<style type="text/css">
	.st0{fill:#77C044;}
	.st1{fill:#F59521;}
	.st2{fill:#00AEEF;}
	.st3{fill:#3255A6;}
	.st4{fill:#FFFFFF;}
	.st5{fill:none;stroke:#77C044;stroke-width:2;stroke-miterlimit:10;}
	.st6{fill:#00AEEF;stroke:#FFFFFF;stroke-miterlimit:10;}
	.st7{fill:#77C044;stroke:#FFFFFF;stroke-miterlimit:10;}
</style>
<g>
	<path class="st2" d="M0.5,48.8c0-11.2,0-22.3,0-33.5c0-0.1,0.1-0.1,0.1-0.2c0.8-4.1,3.9-6.7,8.1-6.7c14.4,0,28.7,0,43.1,0
		c2,0,3.8,0.7,5.2,2c1.7,1.5,2.6,3.5,2.7,5.9c-0.3,0-0.5,0-0.7,0c-2.4,0-4.8,0-7.1,0c-2.1,0-4.2-0.1-6.2,0.2
		c-8.6,1.1-14.7,9.2-13.5,17.8c1.1,7.8,7.8,13.5,15.6,13.6c3.7,0,7.5,0,11.2,0c0.2,0,0.4,0,0.6,0c0,0.3,0,0.5,0,0.7
		c-0.3,4.1-3.7,7.2-7.8,7.2c-14.5,0-29,0-43.4,0c-3.5,0-6.5-2.3-7.5-5.6C0.7,49.6,0.6,49.2,0.5,48.8z"/>
	<path class="st1" d="M63.5,43.8c-5.2,0-10.4,0-15.6,0c-6,0-10.7-3.9-11.8-9.7c-1.3-6.5,3.5-13.1,10.1-13.8c2-0.2,4.1-0.1,6.2-0.1
		c3.7,0,7.5,0,11.2,0C63.5,28.1,63.5,35.9,63.5,43.8z M47.7,35.9c2.2,0,4-1.7,4-3.9c0-2.2-1.7-3.9-3.9-4c-2.2,0-4,1.7-4,3.9
		C43.8,34.1,45.6,35.9,47.7,35.9z"/>
	<path class="st4" d="M47.7,35.9c-2.2,0-3.9-1.8-3.9-4c0-2.2,1.8-3.9,4-3.9c2.1,0,3.9,1.8,3.9,4C51.7,34.2,49.9,36,47.7,35.9z"/>
</g>
</svg>
