<?xml version="1.0" encoding="utf-8"?>
<!-- Generator: Adobe Illustrator 22.1.0, SVG Export Plug-In . SVG Version: 6.00 Build 0)  -->
<svg version="1.1" id="Layer_1" xmlns="http://www.w3.org/2000/svg" xmlns:xlink="http://www.w3.org/1999/xlink" x="0px" y="0px"
	 viewBox="0 0 64 64" style="enable-background:new 0 0 64 64;" xml:space="preserve">
<style type="text/css">
	.st0{fill:#77C044;}
	.st1{fill:#F59521;}
	.st2{fill:#00AEEF;}
	.st3{fill:#3255A6;}
	.st4{fill:#FFFFFF;}
	.st5{fill:none;stroke:#77C044;stroke-width:2;stroke-miterlimit:10;}
	.st6{fill:#00AEEF;stroke:#FFFFFF;stroke-miterlimit:10;}
	.st7{fill:#77C044;stroke:#FFFFFF;stroke-miterlimit:10;}
</style>
<g>
	<path class="st0" d="M43.7,54.4c-2.3-2.3-4.7-4.6-7-6.9c1-1,2-2,3-3c1.3,1.3,2.6,2.6,3.9,4c2.7-2.7,5.3-5.3,7.9-7.9c1,1,2,2,3,3
		C50.9,47.2,47.3,50.8,43.7,54.4z"/>
	<path class="st2" d="M63.1,46.5c0-9.7-7.8-17.5-17.5-17.5c0,0-0.1,0-0.1,0c1.3-2.3,2.1-5,2.1-7.8c0-8.6-7-15.6-15.6-15.6
		s-15.6,7-15.6,15.6c0,8.3,6.5,15,14.7,15.5c-0.8,1.2-1.5,2.5-2,3.9H8.6c-7.8,0-7.8,7.8-7.8,7.8V64h62.3V48.4
		C63.1,48.4,63.1,46.9,63.1,46.5z M59,46.5c0,7.4-6,13.4-13.4,13.4c-7.4,0-13.4-6-13.4-13.4c0-7.4,6-13.4,13.4-13.4
		C53,33.1,59,39.1,59,46.5z"/>
</g>
</svg>
