<?xml version="1.0" encoding="utf-8"?>
<!-- Generator: Adobe Illustrator 22.1.0, SVG Export Plug-In . SVG Version: 6.00 Build 0)  -->
<svg version="1.1" id="Layer_1" xmlns="http://www.w3.org/2000/svg" xmlns:xlink="http://www.w3.org/1999/xlink" x="0px" y="0px"
	 viewBox="0 0 64 64" style="enable-background:new 0 0 64 64;" xml:space="preserve">
<style type="text/css">
	.st0{fill:#77C044;}
	.st1{fill:#F59521;}
	.st2{fill:#00AEEF;}
	.st3{fill:#3255A6;}
	.st4{fill:#FFFFFF;}
	.st5{fill:none;stroke:#77C044;stroke-width:2;stroke-miterlimit:10;}
	.st6{fill:#00AEEF;stroke:#FFFFFF;stroke-miterlimit:10;}
	.st7{fill:#77C044;stroke:#FFFFFF;stroke-miterlimit:10;}
</style>
<g>
	<g>
		<path class="st3" d="M43.6,49.5c2.6,1.2,5.2,2.3,8.1,3.5c-0.8-3.3-1.5-6.2-2.2-9.2c-0.1-0.3-0.5-0.6-0.8-0.8
			c-2-0.8-4.1-1.5-6.3-2.3c0.1,2.7,0.3,5.2,0.5,7.7C42.8,48.9,43.2,49.3,43.6,49.5z"/>
		<path class="st2" d="M32,52.5c0.3-0.6,0.4-0.8,0.5-1.1c2.6-4.7,5.3-9.4,8-14.2l0,0l0,0c0.1-0.2,0.3-0.5,0.4-0.7l-0.1,0l0.1,0
			c0.5-0.9,1-1.8,1.5-2.7c1.3-2.5,1.6-5.3,0.8-8.1c-1.8-6.4-8.4-9.9-15-7.9c-6.3,1.9-9.4,8.3-7.2,14.8c0.5,1.4,1,2.7,1.6,4l0.1,0
			l-0.1,0c0.2,0.3,0.3,0.7,0.5,1l0,0l0,0c2.3,4.8,5.3,9.3,8.2,13.8C31.3,51.7,31.5,51.9,32,52.5z M25.3,28.1
			c0.1-3.4,3.2-6.2,6.8-6.1c3.5,0.1,6.4,3.2,6.3,6.8c-0.1,3.4-3.3,6.4-7,6.4C28,35.1,25.2,31.9,25.3,28.1z"/>
		<path class="st3" d="M11.3,54.1c-0.3,1.4-0.5,2.9-0.8,4.6c3.3-1.2,6.2-2.3,9.1-3.4c0.4-5,0.8-9.9,1.3-15c-2.5,0.9-4.7,1.7-6.9,2.6
			c-0.4,0.2-0.7,0.8-0.8,1.3C12.5,47.5,11.9,50.8,11.3,54.1z"/>
		<path class="st3" d="M43.7,57.8c0,0.4,0.1,0.9,0.4,1c3.3,1.7,6.6,3.3,10.2,5.1c-0.6-2.7-1.2-5.1-1.8-7.4c-0.1-0.4-0.4-0.9-0.7-1
			c-2.8-1.2-5.6-2.4-8.6-3.7C43.3,54,43.5,55.9,43.7,57.8z"/>
		<path class="st3" d="M40.6,59.2c0.3-0.2,0.7-0.8,0.6-1.2c-0.1-1.9-0.4-3.9-0.7-6c-2.5,1.3-4.8,2.5-7.1,3.7
			c-0.3,0.2-0.6,0.6-0.6,0.9c-0.1,2,0,4,0,6.2C35.6,61.6,38.1,60.4,40.6,59.2z"/>
		<path class="st3" d="M23.3,45c-0.1,0-0.2,0.1-0.3,0.1c-0.2,3.1-0.4,6.3-0.6,9.8c2.5-0.2,4.6-0.3,7-0.5C27.2,51,25.3,48,23.3,45z"
			/>
		<path class="st3" d="M22.4,59c2.6,1.3,5.2,2.5,7.9,3.8c0-2.1,0-4,0-5.7c-2.8,0-5.4,0-8.5,0C22.1,57.9,22.1,58.8,22.4,59z"/>
		<path class="st3" d="M12.2,60.2c-2,0.5-2.7,1.6-2.5,3.6c3-1.5,6-3,9-4.6c0.4-0.2,0.5-0.8,0.8-1.2c-0.1-0.1-0.3-0.2-0.4-0.3
			C16.8,58.6,14.6,59.6,12.2,60.2z"/>
		<path class="st3" d="M40.2,44.4c-1.6,2.6-2.9,4.9-4.5,7.6c1.9-0.9,3.4-1.7,4.9-2.4C40.4,47.9,40.3,46.3,40.2,44.4z"/>
	</g>
	<path class="st0" d="M52.5,56.6c0.6,2.3,1.1,4.7,1.8,7.4c-3.6-1.8-6.9-3.4-10.2-5.1c-0.2-0.1-0.4-0.7-0.4-1
		c-0.2-1.9-0.3-3.8-0.5-5.9c3,1.3,5.8,2.4,8.6,3.7C52.1,55.7,52.4,56.2,52.5,56.6z"/>
	<path class="st0" d="M48.7,43.1c0.3,0.1,0.7,0.5,0.8,0.8c0.7,2.9,1.4,5.9,2.2,9.2c-2.9-1.3-5.5-2.4-8.1-3.5c-0.3-0.2-0.7-0.6-0.8-1
		c-0.2-2.5-0.3-5.1-0.5-7.7C44.6,41.6,46.6,42.3,48.7,43.1z"/>
	<path class="st1" d="M40.2,44.4c0.1,2,0.2,3.5,0.4,5.2c-1.5,0.7-2.9,1.4-4.9,2.4C37.3,49.2,38.6,47,40.2,44.4z"/>
	<path class="st0" d="M32.8,56.7c0-0.3,0.3-0.7,0.6-0.9c2.3-1.3,4.7-2.5,7.1-3.7c0.2,2.1,0.5,4.1,0.7,6c0,0.4-0.3,1-0.6,1.2
		c-2.5,1.2-5,2.4-7.8,3.7C32.8,60.7,32.7,58.7,32.8,56.7z"/>
	<path class="st0" d="M18.7,59.2c-3,1.6-6,3-9,4.6c-0.2-2,0.5-3.1,2.5-3.6c2.3-0.6,4.6-1.6,6.8-2.4c0.1,0.1,0.3,0.2,0.4,0.3
		C19.3,58.4,19.1,59.1,18.7,59.2z"/>
	<path class="st1" d="M23,45.1c0.1,0,0.2-0.1,0.3-0.1c2,3,3.9,6,6.1,9.4c-2.4,0.2-4.6,0.3-7,0.5C22.6,51.4,22.8,48.2,23,45.1z"/>
	<path class="st0" d="M30.3,57c0,1.7,0,3.6,0,5.7c-2.6-1.2-5.3-2.4-7.9-3.8c-0.4-0.2-0.4-1.1-0.6-2C24.9,57,27.5,57,30.3,57z"/>
	<path class="st0" d="M14,42.9c2.2-0.9,4.4-1.7,6.9-2.6c-0.4,5.2-0.8,10-1.3,15c-2.9,1.1-5.8,2.2-9.1,3.4c0.3-1.7,0.6-3.1,0.8-4.6
		c0.6-3.3,1.2-6.6,1.8-9.9C13.2,43.7,13.6,43,14,42.9z"/>
</g>
</svg>
