<?xml version="1.0" encoding="utf-8"?>
<!-- Generator: Adobe Illustrator 22.1.0, SVG Export Plug-In . SVG Version: 6.00 Build 0)  -->
<svg version="1.1" id="Layer_1" xmlns="http://www.w3.org/2000/svg" xmlns:xlink="http://www.w3.org/1999/xlink" x="0px" y="0px"
	 viewBox="0 0 64 64" style="enable-background:new 0 0 64 64;" xml:space="preserve">
<style type="text/css">
	.st0{fill:#77C044;}
	.st1{fill:#F59521;}
	.st2{fill:#00AEEF;}
	.st3{fill:#3255A6;}
	.st4{fill:#FFFFFF;}
	.st5{fill:none;stroke:#77C044;stroke-width:2;stroke-miterlimit:10;}
	.st6{fill:#00AEEF;stroke:#FFFFFF;stroke-miterlimit:10;}
	.st7{fill:#77C044;stroke:#FFFFFF;stroke-miterlimit:10;}
</style>
<g>
	<path class="st1" d="M48.4,62.7c-1.4,0-3,0.1-4.5,0.1c-0.6,0-0.9-0.4-0.9-1c-0.1-1,0-1.9-0.2-2.9c-0.5-3.7-2.9-5.8-6.4-6.7
		c-2.8-0.7-5.6-0.7-8.4-0.6c-2.1,0.1-4.1,0.5-6,1.6c-2.3,1.3-3.7,3.3-4,6c-0.1,0.7,0,1.4,0,2.2c0,0.2,0,0.5,0,0.9
		c-1.2,0-2.4,0-3.6,0c-0.1,0-0.4-0.3-0.4-0.5c-0.8-3.3-1.4-6.7-2.3-10C9.4,42.2,5.9,33.1,1.6,24.3c-0.5-1.1-1.1-2.2-1.1-3.5
		c0-1.3,0.5-2.2,1.5-2.6C3,17.8,4,18,4.9,19c0.6,0.7,1.2,1.4,1.6,2.3c2.4,4.7,5.4,9,8.1,13.5c1.1,1.8,2.2,3.6,3.3,5.4
		c0.2,0.4,0.5,0.5,0.9,0.4c3.4-0.3,6.7-0.7,10.1-1c3.7-0.4,7.4-0.7,11.2-1.1c1.5-0.1,3-0.3,4.5-0.3c3.3,0,5.3,1.8,5.5,5
		c0.1,1.9,0,3.8-0.1,5.8c-0.2,2.5-0.5,4.9-0.7,7.4C48.9,58.4,48.7,60.5,48.4,62.7z"/>
	<path class="st2" d="M20.3,38.2c-0.7,0.2-1.1-0.2-1.5-0.8c-2.5-3.6-5-7.3-7.4-10.9c-1.4-2-0.8-4.7,1.2-6c1.9-1.3,4.7-0.8,6,1.1
		c2.6,3.8,5.1,7.6,7.7,11.4c0.1,0.2,0.5,0.4,0.7,0.4c1,0,2-0.1,3-0.1c1.3-0.1,2.7-0.3,4-0.3c1.9-0.1,3.8-0.1,5.8-0.2
		c1.2,0,1.5,0.2,1.7,1.5c0.1,0.4,0.1,0.8,0,1.1c-0.1,1.1-0.3,1.3-1.5,1.4c-3.3,0.3-6.7,0.6-10,0.9c-2.8,0.2-5.6,0.4-8.3,0.5
		C21.3,38.1,20.8,38.1,20.3,38.2z"/>
	<path class="st0" d="M59,19.1c-1.2-0.4-2.3-0.7-3.4-1c-0.1,0-0.3-0.4-0.2-0.6c0.8-3.1,0.3-6.1-1.4-8.8c-1.9-2.9-4.6-4.5-8-5
		c-6-0.8-12,3.4-12.9,10.1c-0.2,1.3,0,2.7,0.1,4.1c0,0.5-0.1,0.6-0.5,0.7c-0.5,0.2-0.6-0.1-0.7-0.5c-0.5-2.2-0.5-4.4,0.1-6.6
		c1.6-5.7,6.3-9.8,12.2-10.3c7.3-0.7,13.5,4.2,15,11c0.4,2.1,0.4,4.2-0.1,6.2C59.1,18.7,59.1,18.9,59,19.1z"/>
	<path class="st2" d="M52.7,42.7c0.7,0.1,1.1,0.6,1.4,1.1c1.5,2.1,2.9,4.2,4.4,6.4c1.7,2.4,3.3,4.8,5,7.2c0.8,1.1,0.8,1.9-0.1,2.5
		c-0.8,0.6-2,0.5-2.8-0.4c-2.5-2.9-5.1-5.7-7.6-8.6c-0.2-0.2-0.3-0.5-0.3-0.7c0-2.4,0-4.7,0-7.1C52.7,43,52.7,42.9,52.7,42.7z"/>
	<path class="st2" d="M10.5,19.3c-2.7,0-4.9-2.2-4.9-5c0-2.6,2.3-4.8,4.9-4.7c2.9,0,4.9,2.2,4.9,5C15.4,17.2,13.1,19.3,10.5,19.3z"
		/>
	<path class="st0" d="M45.3,13.7c0.8,0.4,1.5-0.2,2.2-0.7c1.1-0.6,2.2-1.2,3.2-1.9c0.4-0.2,0.8-0.3,1.2,0.1c0.4,0.5,0.1,0.9-0.3,1.2
		c-1.2,1-2.5,2.1-3.7,3.1c-0.2,0.2-0.4,0.5-0.4,0.7c-0.3,1.3-1.2,2.2-2.4,2.2c-1.3,0-2.3-0.8-2.5-2.1C42.5,15.1,43.5,13.6,45.3,13.7
		z"/>
	<path class="st0" d="M54.3,25.6c-1.1,0-1.9-0.9-1.9-2c0-1,1-1.9,2-1.9c1,0,2,1,1.9,2C56.3,24.8,55.4,25.6,54.3,25.6z"/>
	<path class="st0" d="M50.3,27.3c0,0.9-0.7,1.6-1.6,1.6c-0.9,0-1.6-0.7-1.6-1.6c0-1,0.7-1.6,1.6-1.6C49.6,25.7,50.3,26.3,50.3,27.3z
		"/>
	<path class="st0" d="M41.9,28.9c-0.8,0-1.4-0.6-1.4-1.4c0-0.7,0.7-1.4,1.4-1.4c0.8,0,1.4,0.6,1.4,1.4
		C43.3,28.4,42.7,28.9,41.9,28.9z"/>
</g>
</svg>
