<?xml version="1.0" encoding="utf-8"?>
<!-- Generator: Adobe Illustrator 22.1.0, SVG Export Plug-In . SVG Version: 6.00 Build 0)  -->
<svg version="1.1" id="Layer_1" xmlns="http://www.w3.org/2000/svg" xmlns:xlink="http://www.w3.org/1999/xlink" x="0px" y="0px"
	 viewBox="0 0 64 64" style="enable-background:new 0 0 64 64;" xml:space="preserve">
<style type="text/css">
	.st0{fill:#77C044;}
	.st1{fill:#F59521;}
	.st2{fill:#00AEEF;}
	.st3{fill:#3255A6;}
	.st4{fill:#FFFFFF;}
	.st5{fill:none;stroke:#77C044;stroke-width:2;stroke-miterlimit:10;}
	.st6{fill:#00AEEF;stroke:#FFFFFF;stroke-miterlimit:10;}
	.st7{fill:#77C044;stroke:#FFFFFF;stroke-miterlimit:10;}
</style>
<g>
	<path class="st0" d="M17.9,10.1c0,1.4,0,2.7,0,4c0,0.1-0.3,0.3-0.5,0.4c-0.5,0.1-1,0-1.5,0.1c-2.5,0.4-4,2.2-4.1,4.8
		c-0.1,2.2-0.1,4.5-0.1,6.8c0,9.3,0,18.6,0,27.8c0,1.5,0.3,2.9,1.2,4c0.9,1.1,1.9,1.7,3.3,1.8c3.1,0,6.2,0,9.3,0
		c7.1,0,14.1,0,21.2,0c3.3,0,5.5-2,5.5-5.4c0-11.4,0-22.8,0-34.1c0-0.9-0.1-1.9-0.4-2.7c-0.8-2.1-2.6-2.9-4.7-3c-0.2,0-0.3,0-0.5,0
		c-0.1,0-0.3,0-0.5,0c0-1.4,0-2.8,0-4.3c3.1-0.3,5.6,0.6,7.7,2.8c1.7,1.8,2.5,3.9,2.5,6.3c0,10.7,0,21.3,0,32c0,1.8-0.1,3.6-0.4,5.4
		c-0.7,3.9-4.4,7.1-8.4,7.1c-10.4,0-20.8,0-31.1,0c-4.1,0-7.8-3.2-8.4-7.4c-0.3-2.1-0.3-4.2-0.3-6.3c0-10.1,0-20.1,0-30.2
		c0-3.8,1.4-6.8,4.8-8.8C14.1,10.2,15.9,10.1,17.9,10.1z"/>
	<path class="st1" d="M38.8,8.1c0.7,0,1.3,0,1.9,0c1.8,0,3.3,1.3,3.4,3.4c0,0.9-0.1,1.9,0,2.8c0.2,2-1.7,3.5-3.5,3.5
		c-4.5,0-9.1,0-13.6,0c-1.2,0-2.4,0-3.6,0c-1.9,0-3.3-1.4-3.3-3.3c0-1.1,0-2.1,0-3.2c0-1.9,1.3-3.2,3.2-3.2c0.6,0,1.2,0,1.9,0
		c0-2.4,0.9-4.3,2.8-5.7c1.3-1,2.8-1.4,4.4-1.3c1.8,0.1,3.4,0.8,4.7,2.2C38.3,4.6,38.8,6.2,38.8,8.1z M35.8,8
		c-0.1-1.5-0.6-2.7-1.9-3.3c-1.4-0.7-2.7-0.6-4,0.3c-1,0.7-1.5,1.8-1.5,3.1C30.9,8,33.3,8,35.8,8z"/>
	<path class="st2" d="M43.7,41.3c-1.1-0.3-2.2-0.7-3.3-1c-0.2-0.1-0.1-0.1-0.1-0.3c0.3-0.9,0.4-1.8,0.4-2.7c0-2.7-1-5-3-6.8
		c-1.4-1.4-3.1-2.2-5.1-2.5c-3.9-0.5-7.1,0.8-9.5,4c-1.1,1.4-1.6,3-1.9,4.7c-0.2,1.3-0.1,2.6,0.3,3.9c-0.4,0.1-0.7,0.2-1.1,0.3
		c-0.1-0.4-0.3-0.8-0.3-1.2c-1-6.2,2.8-12.2,8.9-13.8c4.9-1.3,10.4,0.7,13.1,4.9c1.4,2.1,2.1,4.5,2.1,7.1
		C44.2,39.1,44.1,40.2,43.7,41.3z"/>
	<path class="st2" d="M30.6,38.9c0.8-0.8,1.6-1.6,2.4-2.4c0.8-0.8,1.5-1.5,2.3-2.3c0.6-0.6,1.6-0.4,1.8,0.5c0.1,0.4,0,0.7-0.3,1
		c-0.3,0.3-0.7,0.7-1,1c-1.5,1.4-2.9,2.9-4.4,4.3c-0.6,0.6-1.2,0.6-1.7,0c-0.8-0.8-1.6-1.6-2.4-2.4c-0.3-0.3-0.5-0.7-0.3-1.2
		c0.3-0.7,1.2-0.9,1.8-0.4c0.4,0.4,0.8,0.8,1.2,1.2C30.2,38.5,30.4,38.7,30.6,38.9z"/>
	<path class="st2" d="M38,45c0-1,0.8-1.8,1.8-1.8c1,0,1.7,0.8,1.7,1.8c0,1-0.8,1.7-1.7,1.7C38.7,46.7,38,46,38,45z"/>
	<path class="st2" d="M34.8,49.7c-0.8,0-1.5-0.7-1.5-1.5c0-0.8,0.7-1.5,1.5-1.5c0.8,0,1.5,0.7,1.5,1.5C36.3,49,35.6,49.7,34.8,49.7z
		"/>
	<path class="st2" d="M27.7,48.4c0-0.7,0.6-1.3,1.3-1.3c0.7,0,1.3,0.6,1.3,1.3c0,0.7-0.6,1.3-1.3,1.3C28.2,49.7,27.7,49.1,27.7,48.4
		z"/>
	<path class="st2" d="M24.2,46.7c-0.5,0-0.8-0.4-0.8-0.8c0-0.4,0.4-0.8,0.8-0.8c0.4,0,0.8,0.4,0.8,0.8C25,46.4,24.6,46.7,24.2,46.7z
		"/>
</g>
</svg>
