<?xml version="1.0" encoding="utf-8"?>
<!-- Generator: Adobe Illustrator 22.1.0, SVG Export Plug-In . SVG Version: 6.00 Build 0)  -->
<svg version="1.1" id="Layer_1" xmlns="http://www.w3.org/2000/svg" xmlns:xlink="http://www.w3.org/1999/xlink" x="0px" y="0px"
	 viewBox="0 0 64 64" style="enable-background:new 0 0 64 64;" xml:space="preserve">
<style type="text/css">
	.st0{fill:#77C044;}
	.st1{fill:#F59521;}
	.st2{fill:#00AEEF;}
	.st3{fill:#3255A6;}
	.st4{fill:#FFFFFF;}
	.st5{fill:none;stroke:#77C044;stroke-width:2;stroke-miterlimit:10;}
	.st6{fill:#00AEEF;stroke:#FFFFFF;stroke-miterlimit:10;}
	.st7{fill:#77C044;stroke:#FFFFFF;stroke-miterlimit:10;}
</style>
<g>
	<path class="st1" d="M29.5,31.7c2-2,2.6-2,4.2-0.1c0.2-0.3,0.4-0.6,0.7-0.9c0.4-0.4,0.9-0.7,1.3-0.9c0.8-0.4,1.6-0.3,2.3,0.2
		c0.7,0.6,0.9,1.3,0.7,2.2c-0.2,0.6-0.5,1.1-0.7,1.7c-0.5,1.4-1.1,2.9-1.6,4.3c-0.1,0.3,0.1,0.7,0.3,1c1.2,1.6,2.6,3.2,3.8,4.8
		c1.7,2.4,3.1,5,3.5,8c0.6,5.1-1.6,8.9-6.4,10.5c-4.4,1.5-8.8,1.4-13-0.9c-3.5-1.9-5.1-5.4-4.6-9.3c0.4-3.7,2.2-6.8,4.4-9.6
		c0.9-1.2,2-2.4,2.9-3.7c0.2-0.3,0.3-0.7,0.2-1c-0.4-1.3-1-2.6-1.5-3.9c-0.2-0.5-0.4-1-0.4-1.5c-0.1-1.4,1.3-2.3,2.6-1.7
		C28.7,31.1,29.1,31.4,29.5,31.7z M28.9,34.2c0.3,0.8,0.5,1.6,0.7,2.3c0.1,0.2,0.3,0.3,0.5,0.3c1.4,0,2.8,0,4.1,0
		c0.5-1.3,0.9-2.5,1.3-3.6c-0.6,0.2-1.2,0.7-1.9,0.7c-0.7,0-1.4-0.4-2.1-0.7C30.9,34,30.1,34.4,28.9,34.2z"/>
	<path class="st2" d="M33.2,27.9c-0.8-0.1-1.6-0.1-2.4-0.2c0-0.2,0-0.5,0-0.8c0-4.4,0-8.9,0-13.3c0-0.5-0.2-1-0.5-1.4
		C27.6,8.5,27.8,4.1,30.9,1c0.8-0.7,1.3-0.7,2.1,0c3.2,3.2,3.5,7.5,0.7,11.4c-0.3,0.5-0.5,0.9-0.5,1.5c0,4.4,0,8.8,0,13.1
		C33.2,27.4,33.2,27.7,33.2,27.9z"/>
	<path class="st2" d="M22.4,9.5c3.7,0,6.4,2.3,7.1,6.1c0.1,0.3,0.1,0.6,0.1,0.9c0.1,0.7-0.3,1.2-1.1,1.4c-3.3,0.7-6.3-0.8-7.7-4
		c-0.3-0.8-0.6-1.7-0.8-2.5c-0.2-0.9,0.1-1.5,1.1-1.7C21.5,9.6,21.9,9.6,22.4,9.5z"/>
	<path class="st2" d="M37.3,18c-2.9-0.1-3.1-0.7-2.6-3c1-3.9,4.3-6.1,8.3-5.3c0.8,0.1,1.2,0.7,1.1,1.4c-0.3,1.7-0.9,3.3-2,4.7
		C40.8,17.3,39.1,18,37.3,18z"/>
	<path class="st0" d="M23,18.6c3.7,0,6.4,2.3,7.1,6.1c0,0.2,0.1,0.3,0.1,0.5c0.2,1-0.2,1.5-1.2,1.7c-3.3,0.7-6.3-0.9-7.6-4.1
		c-0.3-0.8-0.6-1.7-0.8-2.5c-0.2-0.8,0.2-1.4,1.1-1.6C22.1,18.7,22.5,18.7,23,18.6z"/>
	<path class="st0" d="M36.7,27.1c-2.9-0.1-3.1-0.7-2.6-3c1-3.9,4.3-6.1,8.3-5.3c0.8,0.1,1.2,0.6,1.1,1.4c-0.3,1.7-0.9,3.3-2,4.7
		C40.2,26.4,38.5,27.1,36.7,27.1z"/>
	<path class="st4" d="M28.9,34.2c1.2,0.2,2-0.1,2.6-0.9c0.8,0.3,1.5,0.7,2.1,0.7c0.7,0,1.3-0.5,1.9-0.7c-0.4,1.1-0.8,2.3-1.3,3.6
		c-1.3,0-2.7,0-4.1,0c-0.2,0-0.4-0.2-0.5-0.3C29.4,35.7,29.2,35,28.9,34.2z"/>
	<path class="st4" d="M32,58.8l-1.9-1.3l0.1-7.1h-1.8v-2h1.8v-2.1c0-0.6-0.1-0.9-0.4-0.9c-0.2,0-0.5,0.2-0.9,0.5l-1-1.5
		c0.7-0.8,1.4-1.3,1.9-1.3c1.7,0,2.6,1.1,2.6,3.4c0,0.9,0,1.5-0.1,1.9H34v1.9h-1.6v6.1c2.5-0.8,3.8-1.8,3.8-3c0-0.5-0.2-0.8-0.6-0.8
		c-0.2,0-0.5,0.3-1.1,0.8l-1.1-1.5c0.4-1,1.2-1.5,2.4-1.5c0.7,0,1.4,0.3,1.9,0.9c0.5,0.6,0.7,1.3,0.7,2C38.2,55.8,36.1,57.6,32,58.8
		z"/>
</g>
</svg>
