<?xml version="1.0" encoding="utf-8"?>
<!-- Generator: Adobe Illustrator 22.1.0, SVG Export Plug-In . SVG Version: 6.00 Build 0)  -->
<svg version="1.1" id="Layer_1" xmlns="http://www.w3.org/2000/svg" xmlns:xlink="http://www.w3.org/1999/xlink" x="0px" y="0px"
	 viewBox="0 0 64 64" style="enable-background:new 0 0 64 64;" xml:space="preserve">
<style type="text/css">
	.st0{fill:#77C044;}
	.st1{fill:#F59521;}
	.st2{fill:#00AEEF;}
	.st3{fill:#3255A6;}
	.st4{fill:#FFFFFF;}
	.st5{fill:none;stroke:#77C044;stroke-width:2;stroke-miterlimit:10;}
	.st6{fill:#00AEEF;stroke:#FFFFFF;stroke-miterlimit:10;}
	.st7{fill:#77C044;stroke:#FFFFFF;stroke-miterlimit:10;}
</style>
<g>
	<path class="st0" d="M27.2,39.9c-2.8,0-5.5,0.1-8.2,0c-2-0.1-3.6-1.9-3.6-3.9c0-4.4,0-8.8,0-13.1c0-0.5,0.2-1.1,0.5-1.5
		c0.4-0.6,1-1.1,1.6-1.6c4.1-3.1,8.2-6.1,12.3-9.1c1.5-1.1,3.1-1.1,4.5,0c4,3,8.1,6,12.1,8.9c0.4,0.3,0.7,0.6,1.1,0.9
		c0.9,0.8,1.3,1.7,1.2,2.9c-0.1,4.1-0.1,8.2,0,12.4c0,2.5-2.1,4.2-4.2,4.2c-2.3,0-4.6,0-6.9,0c-0.6,0-0.8-0.2-0.8-0.8
		c0-3.6,0-7.3,0-10.9c0-1.3-0.6-2-2-2c-1.9,0-3.8,0-5.6,0c-1.4,0-2,0.7-2,2.1c0,3.6,0,7.2,0,10.8C27.2,39.4,27.2,39.6,27.2,39.9z"/>
	<path class="st2" d="M29.5,48.4c2.4,0.7,4.8,1.5,7.1,2.2c0.7,0.2,1.3-0.2,1.8-0.7c1.8-1.9,3.7-3.9,5.5-5.8c0.8-0.8,1.7-1.4,2.8-1.5
		c1.1-0.1,2.2,0.7,2.2,1.6c0,0.4-0.1,0.8-0.4,1c-2.9,3.5-5.8,7-8.6,10.5c-0.8,1-1.9,1-2.9,1.1c-4.1,0.4-8.2,0.8-12.3,1.3
		c-0.3,0-0.6,0.1-1,0.1c-1.5,0-2.7,0.7-3.8,1.8c-1.3,1.2-2.6,2.3-3.9,3.5c-0.2,0.2-0.4,0.2-0.6,0.3c-0.1-0.2-0.2-0.5-0.2-0.7
		c0-4.2,0-8.4,0-12.5c0-0.7,0.3-1.3,0.8-1.7c2-1.7,4-3.3,6-5c0.6-0.5,1.3-0.7,2-0.7c4,0.1,8,0.3,12,0.4c0.2,0,0.4,0,0.6,0.1
		c0.7,0.2,1.3,0.6,1.4,1.4c0.1,0.8-0.5,1.2-1.1,1.5c-1.4,0.8-2.9,1.1-4.4,1.3c-1,0.2-2,0.3-3,0.4C29.5,48.3,29.5,48.3,29.5,48.4z"/>
	<path class="st1" d="M39.3,4.7c0-0.6,0.1-1,0.1-1.4c0-1.1,0.6-1.7,1.8-1.7c0.8,0,1.6,0,2.4,0c1.1,0,1.7,0.6,1.7,1.7
		c0,1.6,0,3.2,0,4.9c0,0.7,0.2,1.2,0.8,1.6c2,1.4,4,2.9,6,4.4c1.2,0.9,1.4,2.3,0.6,3.5c-0.1,0.2-0.3,0.4-0.5,0.6
		c-0.9,1.2-2.3,1.4-3.5,0.5c-3.7-2.7-7.3-5.4-11-8.1c-1.1-0.8-2.2-1.5-3.2-2.4c-1.3-1.1-3.5-1-4.8,0C25,11.7,20.4,15,15.8,18.4
		c-0.7,0.5-1.5,1-2.5,0.7c-1.3-0.4-1.9-1.3-2.3-2.5c-0.3-1.1,0.2-2,1.1-2.7C18.1,9.7,24,5.3,29.8,1c1.4-1,3-1,4.4,0
		c1.5,1.1,2.9,2.1,4.4,3.2C38.8,4.4,38.9,4.5,39.3,4.7z"/>
</g>
</svg>
