<?xml version="1.0" encoding="utf-8"?>
<!-- Generator: Adobe Illustrator 22.1.0, SVG Export Plug-In . SVG Version: 6.00 Build 0)  -->
<svg version="1.1" id="Layer_1" xmlns="http://www.w3.org/2000/svg" xmlns:xlink="http://www.w3.org/1999/xlink" x="0px" y="0px"
	 viewBox="0 0 64 64" style="enable-background:new 0 0 64 64;" xml:space="preserve">
<style type="text/css">
	.st0{fill:#77C044;}
	.st1{fill:#F59521;}
	.st2{fill:#00AEEF;}
	.st3{fill:#3255A6;}
	.st4{fill:#FFFFFF;}
	.st5{fill:none;stroke:#77C044;stroke-width:2;stroke-miterlimit:10;}
	.st6{fill:#00AEEF;stroke:#FFFFFF;stroke-miterlimit:10;}
	.st7{fill:#77C044;stroke:#FFFFFF;stroke-miterlimit:10;}
</style>
<g id="user_x5F_close_x5F_security">
	<path class="st2" d="M63.8,46.1c0-9.9-8-17.9-17.9-17.9c0,0-0.1,0-0.1,0c1.4-2.3,2.1-5.1,2.1-7.9c0-8.8-7.1-15.9-15.9-15.9
		s-15.9,7.1-15.9,15.9c0,8.5,6.6,15.3,14.9,15.8c-0.8,1.2-1.5,2.6-2,4H8.2c-7.9,0-7.9,7.9-7.9,7.9V64h63.5V48.1
		C63.8,48.1,63.8,46.5,63.8,46.1z M59.6,46.1c0,7.5-6.1,13.6-13.7,13.7c-7.5,0-13.6-6.1-13.7-13.7c0-7.5,6.1-13.6,13.7-13.7
		C53.4,32.5,59.5,38.6,59.6,46.1z"/>
	<path class="st1" d="M52.1,44.1c0-0.3,0-0.5,0-0.8c0-1.3-0.2-3-1.1-4.5c-0.9-1.5-2.9-2.7-5.2-2.6c-2.3-0.1-4.3,1.1-5.2,2.6
		c-0.9,1.5-1.1,3.1-1.1,4.5c0,0.3,0,0.6,0,0.8H38v9.9h15.9v-9.9H52.1z M43.6,43.3c0-0.9,0.2-1.9,0.5-2.4c0.3-0.5,0.5-0.7,1.8-0.8
		c1.3,0.1,1.4,0.3,1.8,0.8c0.3,0.5,0.5,1.4,0.5,2.4c0,0.3,0,0.6,0,0.8h-4.5C43.6,43.9,43.6,43.6,43.6,43.3z"/>
</g>
</svg>
