<?xml version="1.0" encoding="utf-8"?>
<!-- Generator: Adobe Illustrator 22.1.0, SVG Export Plug-In . SVG Version: 6.00 Build 0)  -->
<svg version="1.1" id="Layer_1" xmlns="http://www.w3.org/2000/svg" xmlns:xlink="http://www.w3.org/1999/xlink" x="0px" y="0px"
	 viewBox="0 0 64 64" style="enable-background:new 0 0 64 64;" xml:space="preserve">
<style type="text/css">
	.st0{fill:#77C044;}
	.st1{fill:#F59521;}
	.st2{fill:#00AEEF;}
	.st3{fill:#3255A6;}
	.st4{fill:#FFFFFF;}
	.st5{fill:none;stroke:#77C044;stroke-width:2;stroke-miterlimit:10;}
	.st6{fill:#00AEEF;stroke:#FFFFFF;stroke-miterlimit:10;}
	.st7{fill:#77C044;stroke:#FFFFFF;stroke-miterlimit:10;}
</style>
<g>
	<path class="st2" d="M6.5,31.8c0-8,0-16,0-23.9c0-3.3,1.4-5.8,4.4-7.1c1-0.5,2.2-0.7,3.3-0.7c8.2,0,16.5,0,24.7,0.1
		c0.8,0,1.4,0.3,2,0.8c5.3,5.3,10.5,10.6,15.8,15.9c0.8,0.8,0.9,1.7,0.9,2.7c0,11,0,22,0,32.9c0,1.3,0,2.5,0,3.8
		c0,4.5-3.3,7.7-7.7,7.7c-7.6,0-15.2,0-22.8,0c-4.3,0-8.6,0-12.9,0c-3.5,0-6.4-2.2-7.3-5.4c-0.2-0.8-0.3-1.6-0.3-2.4
		C6.5,48,6.5,39.9,6.5,31.8C6.5,31.8,6.5,31.8,6.5,31.8z M30.2,16.7c-3.2,3.2-6.4,6.4-9.6,9.7c-1.5-1.6-3-3.1-4.5-4.5
		c-1,1-1.9,1.9-2.7,2.7c2.4,2.5,4.8,5,7.2,7.4c4.2-4.1,8.4-8.2,12.5-12.3C32.1,18.6,31.2,17.7,30.2,16.7z M50.2,40.4
		c-6.3,0-12.5,0-18.8,0c0,0.8,0,1.6,0,2.4c6.3,0,12.5,0,18.8,0C50.2,42,50.2,41.2,50.2,40.4z M31.4,49c6.3,0,12.5,0,18.8,0
		c0-0.8,0-1.6,0-2.4c-6.3,0-12.5,0-18.8,0C31.4,47.5,31.4,48.2,31.4,49z M40.8,9c0,0,0.1-0.1,0.1-0.1c0,0.1,0,0.3,0,0.4
		c0,1.9,0,3.8,0,5.7c0,1.4,0.8,2.2,2.2,2.2c1.8,0,3.7,0,5.5,0c0.1,0,0.3,0,0.6-0.1C46.3,14.3,43.6,11.6,40.8,9z M50.2,53.1
		c-3.4,0-6.7,0-10.1,0c0,0.8,0,1.6,0,2.4c3.4,0,6.7,0,10.1,0C50.2,54.7,50.2,53.9,50.2,53.1z"/>
	<path class="st1" d="M30.2,16.7c1,1,1.9,1.9,2.9,2.9c-4.1,4.1-8.3,8.2-12.5,12.3c-2.3-2.4-4.8-4.9-7.2-7.4c0.8-0.8,1.7-1.7,2.7-2.7
		c1.4,1.4,2.9,3,4.5,4.5C23.8,23.1,27,19.9,30.2,16.7z"/>
	<path class="st0" d="M50.2,40.4c0,0.8,0,1.6,0,2.4c-6.3,0-12.5,0-18.8,0c0-0.8,0-1.6,0-2.4C37.7,40.4,43.9,40.4,50.2,40.4z"/>
	<path class="st4" d="M31.4,49c0-0.8,0-1.6,0-2.4c6.3,0,12.5,0,18.8,0c0,0.8,0,1.6,0,2.4C44,49,37.7,49,31.4,49z"/>
	<path class="st4" d="M40.8,9c2.8,2.6,5.5,5.3,8.4,8c-0.4,0-0.5,0.1-0.6,0.1c-1.8,0-3.7,0-5.5,0c-1.4,0-2.2-0.8-2.2-2.2
		c0-1.9,0-3.8,0-5.7c0-0.1,0-0.3,0-0.4C40.9,8.9,40.9,9,40.8,9z"/>
	<path class="st4" d="M50.2,53.1c0,0.8,0,1.6,0,2.4c-3.4,0-6.7,0-10.1,0c0-0.8,0-1.6,0-2.4C43.5,53.1,46.8,53.1,50.2,53.1z"/>
</g>
</svg>
