<?xml version="1.0" encoding="utf-8"?>
<!-- Generator: Adobe Illustrator 22.1.0, SVG Export Plug-In . SVG Version: 6.00 Build 0)  -->
<svg version="1.1" id="Layer_1" xmlns="http://www.w3.org/2000/svg" xmlns:xlink="http://www.w3.org/1999/xlink" x="0px" y="0px"
	 viewBox="0 0 64 64" style="enable-background:new 0 0 64 64;" xml:space="preserve">
<style type="text/css">
	.st0{fill:#77C044;}
	.st1{fill:#F59521;}
	.st2{fill:#00AEEF;}
	.st3{fill:#3255A6;}
	.st4{fill:#FFFFFF;}
	.st5{fill:none;stroke:#77C044;stroke-width:2;stroke-miterlimit:10;}
	.st6{fill:#00AEEF;stroke:#FFFFFF;stroke-miterlimit:10;}
	.st7{fill:#77C044;stroke:#FFFFFF;stroke-miterlimit:10;}
</style>
<g>
	<path class="st2" d="M33.5,60c-5.1,0-10.2,0-15.2,0c-0.5,0-0.7,0.1-1,0.6c-1.1,2.2-3.5,3.4-5.9,2.8c-2.3-0.6-4-2.7-4-5.1
		c0-2.4,1.7-4.5,4.2-5c2.3-0.5,4.7,0.7,5.7,2.9c0.2,0.4,0.4,0.5,0.8,0.5c9.9,0,19.8,0,29.8,0c2.5,0,4.5-1.4,5.2-3.6
		c0.8-2.1,0.1-4.5-1.7-6c-1.1-0.9-2.3-1.2-3.7-1.2c-3.4,0-6.8,0-10.2,0c-4.1,0-7.5-2.7-8.5-6.7c-1.2-4.7,1.9-9.5,6.7-10.5
		c0.6-0.1,1.3-0.2,2-0.2c2.7,0,5.5,0,8.2,0c0.5,0,0.7-0.1,1-0.6c1.1-2.3,3.5-3.4,5.9-2.8c2.3,0.6,3.9,2.7,3.9,5.1
		c0,2.4-1.7,4.5-4.1,5c-2.3,0.5-4.6-0.7-5.7-2.9c-0.1-0.3-0.3-0.5-0.7-0.5c-2.9,0-5.8,0-8.8,0c-2.8,0-5,2.1-5.3,4.9
		c-0.3,2.6,1.6,5.1,4.2,5.7c0.4,0.1,0.9,0.1,1.4,0.1c3.4,0,6.8,0,10.2,0c4.3,0,7.9,2.9,8.7,7C57.7,55,53.6,60,48,60
		C43.2,60,38.3,60,33.5,60z"/>
	<path class="st1" d="M12.3,50.7c-1.8-2.3-3.6-4.5-5.3-6.7c-0.4-0.5-0.8-1-1.1-1.4c-4.1-5.2-1.6-12.3,4.8-13.8
		c4.6-1.1,9.6,2.4,10.2,7.1c0.3,2.5-0.3,4.7-1.9,6.6c-2,2.5-4.1,5.1-6.1,7.6C12.6,50.3,12.5,50.5,12.3,50.7z M12.3,40.3
		c1.7,0,3.2-1.4,3.2-3.1c0-1.7-1.4-3.2-3.2-3.2c-1.7,0-3.1,1.4-3.2,3.1C9.1,38.8,10.5,40.3,12.3,40.3z"/>
	<path class="st0" d="M51.7,22.6c-0.9-1.1-1.8-2.3-2.7-3.4c-1.3-1.6-2.6-3.3-3.9-4.9c-2.3-2.9-2.5-6.7-0.5-9.8
		c1.9-3,5.5-4.5,8.9-3.8c3.6,0.8,6.2,3.6,6.7,7.2c0.3,2.2-0.2,4.2-1.5,6c-2.2,2.9-4.5,5.7-6.8,8.6C51.8,22.5,51.7,22.6,51.7,22.6z
		 M51.7,5.8c-1.8,0-3.2,1.4-3.2,3.2c0,1.7,1.4,3.1,3.2,3.2c1.7,0,3.2-1.4,3.2-3.2C54.9,7.2,53.5,5.8,51.7,5.8z"/>
</g>
</svg>
