<?xml version="1.0" encoding="utf-8"?>
<!-- Generator: Adobe Illustrator 22.1.0, SVG Export Plug-In . SVG Version: 6.00 Build 0)  -->
<svg version="1.1" id="Layer_1" xmlns="http://www.w3.org/2000/svg" xmlns:xlink="http://www.w3.org/1999/xlink" x="0px" y="0px"
	 viewBox="0 0 64 64" style="enable-background:new 0 0 64 64;" xml:space="preserve">
<style type="text/css">
	.st0{fill:#77C044;}
	.st1{fill:#F59521;}
	.st2{fill:#00AEEF;}
	.st3{fill:#3255A6;}
	.st4{fill:#FFFFFF;}
	.st5{fill:none;stroke:#77C044;stroke-width:2;stroke-miterlimit:10;}
	.st6{fill:#00AEEF;stroke:#FFFFFF;stroke-miterlimit:10;}
	.st7{fill:#77C044;stroke:#FFFFFF;stroke-miterlimit:10;}
</style>
<g>
	<path class="st6" d="M23.8,62.9c-1.5-0.4-2.6-1.3-2.8-3c-0.2-1.3-0.2-2.6-0.4-4c-0.3-3-0.5-6-0.8-9.1c-0.1-1,0.1-1.8,0.5-2.7
		c1.7-3.1,3.4-6.3,5.2-9.4c0.2-0.4,0.2-0.7,0.1-1.1c-0.5-1.5-0.9-3-1.4-4.5c0.3-0.1,0.6-0.2,0.9-0.3c2.2-0.8,4.1-2,6-3.4
		c0.4-0.3,0.7-0.3,1.1-0.2c2,0.6,3.9,1.2,6,1.1c0.1,0,0.4,0.2,0.4,0.3c0.6,1.9,1.2,3.7,1.7,5.6c0.2,0.6,0,1.4-0.1,2
		c-0.7,3.7-1.4,7.4-2.1,11.1c-0.1,0.3,0,0.6,0.1,0.9c1.6,3.7,3.1,7.4,4.9,11.1c1.1,2.3,0.4,4.7-2.2,5.4c-0.4,0-0.8,0-1.2,0
		c-1.1-0.3-2-1-2.5-2.1c-1.9-4.3-3.8-8.6-5.6-12.8c-0.3-0.8-0.4-1.5-0.3-2.3c0.3-1.8,0.7-3.5,1-5.3c0.2-1.1,0.4-2.2,0.6-3.3
		c-0.1,0-0.1-0.1-0.2-0.1c-0.4,0.3-0.9,0.5-1.1,0.8c-1.7,2.9-3.3,5.9-4.9,8.9c-0.1,0.2-0.2,0.6-0.2,0.9c0.3,4,0.7,8,1.1,12
		c0.1,1.5-0.8,2.9-2.2,3.4c-0.2,0.1-0.3,0.1-0.5,0.2C24.6,62.9,24.2,62.9,23.8,62.9z"/>
	<path class="st1" d="M40.6,1.1c0.3,0.2,0.5,0.4,0.8,0.6c-0.9,1.4-1.8,2.7-2.8,4.2c0.9,0.2,1.6,0.4,2.5,0.6c-1.5,1.8-3,3.4-4.5,5.2
		c-0.1-0.1-0.1-0.1-0.2-0.2c1.1-1.5,2.1-3.1,3.2-4.6c-0.8-0.1-1.5-0.2-2.3-0.4c1.1-1.8,2.1-3.6,3.1-5.3C40.5,1.1,40.5,1.1,40.6,1.1z
		"/>
	<path class="st6" d="M37.6,21.6c-0.7-1.3-1.5-2.3-2.6-3.1c-0.1-0.1-0.3,0-0.6,0.1c0.8,0.8,1.4,1.5,2.1,2.2c0,0.1-0.1,0.1-0.1,0.2
		c-0.2,0-0.5-0.1-0.7-0.1c-1-0.3-2-0.5-2.9-1.1s-2.1-0.5-3,0.2c-1.5,1.1-3.1,2.1-4.6,3.1c-0.6,0.4-1.2,0.6-1.9,1
		c0.2-0.6,0.3-1,0.5-1.6c-0.3,0.1-0.5,0.1-0.6,0.2c-0.2,0.7-0.4,1.3-0.6,2c0.1,0,0.1,0.1,0.2,0.1c0.8-0.4,1.7-0.7,2.4-1.1
		c1.7-1,3.3-2.2,4.9-3.3c0.8-0.5,1.4-0.7,2.3-0.3c-1.2,0.3-2,0.9-2.2,2c-0.3,1.1,0.1,2,0.9,2.8c-0.1,0.1-0.2,0.2-0.4,0.3
		c-1.7,1.2-3.5,2.4-5.5,3.2c-1.1,0.4-2.3,0.8-3.5,0.6c-1.8-0.3-3.1-1.5-3.2-3.3c-0.3-3.2,1-5.8,2.9-8.3c1.1,0.7,2.2,1.1,3.4,1.2
		c2.9,0.1,5.4-1.5,6.5-4.2c0.1-0.4,0.3-0.5,0.7-0.6c1.5-0.6,2.9-0.3,4.2,0.4c2.4,1.4,4.2,3.3,5.4,5.8c0.2,0.5,0.4,1.1,0.5,1.7
		c0.3,2.3-1.1,4.1-3.5,4.3c-2.3,0.2-4.5-0.4-6.6-1.2c-1.1-0.4-1.5-1.6-1.1-2.7c0.4-1.1,1.5-1.6,2.7-1.3c1.1,0.3,2.3,0.6,3.4,0.9
		C37.1,21.6,37.3,21.6,37.6,21.6z"/>
	<path class="st2" d="M19.1,11.9c0-3.4,2.7-6.1,6.1-6c3.3,0,6,2.8,6,6.1c0,3.3-2.7,6-6,6C21.8,17.9,19.1,15.2,19.1,11.9z"/>
	<path class="st1" d="M40.6,9.7c1.5-0.9,3-1.8,4.5-2.6c0.2,0.3,0.3,0.5,0.5,0.8c-1.3,0.6-2.5,1.3-3.8,1.9c0.5,0.5,1,1,1.6,1.5
		c-1.9,0.6-3.6,1.3-5.4,1.9c0-0.1-0.1-0.1-0.1-0.2c1.4-0.7,2.8-1.3,4.3-2.1C41.6,10.5,41.1,10.2,40.6,9.7z"/>
	<path class="st1" d="M33.3,2.1c0.3,0,0.6,0,0.9,0c-0.2,1.4-0.4,2.7-0.6,4.2C34.3,6.1,35,6,35.7,5.8c-0.5,1.9-1,3.6-1.5,5.4
		c-0.1,0-0.1,0-0.2,0c0.2-1.5,0.5-3,0.7-4.6c-0.7,0.2-1.2,0.4-1.9,0.5C33,5.4,33.1,3.8,33.3,2.1z"/>
</g>
</svg>
