<?xml version="1.0" encoding="utf-8"?>
<!-- Generator: Adobe Illustrator 22.1.0, SVG Export Plug-In . SVG Version: 6.00 Build 0)  -->
<svg version="1.1" id="Layer_1" xmlns="http://www.w3.org/2000/svg" xmlns:xlink="http://www.w3.org/1999/xlink" x="0px" y="0px"
	 viewBox="0 0 64 64" style="enable-background:new 0 0 64 64;" xml:space="preserve">
<style type="text/css">
	.st0{fill:#77C044;}
	.st1{fill:#F59521;}
	.st2{fill:#00AEEF;}
	.st3{fill:#3255A6;}
	.st4{fill:#FFFFFF;}
	.st5{fill:none;stroke:#77C044;stroke-width:2;stroke-miterlimit:10;}
	.st6{fill:#00AEEF;stroke:#FFFFFF;stroke-miterlimit:10;}
	.st7{fill:#77C044;stroke:#FFFFFF;stroke-miterlimit:10;}
</style>
<g>
	<path class="st0" d="M55,37.9c-15.4,0-30.7,0-46,0c0-0.2,0-0.3,0-0.5c0-1.9,0-3.9,0-5.8c0-0.8,0.2-1,1-1c14.7,0,29.4,0,44,0
		c0.8,0,1,0.2,1,1c0,2,0,3.9,0,5.9C55,37.6,55,37.7,55,37.9z"/>
	<path class="st2" d="M14.9,17.2c3.2-0.1,5.9,2.6,5.9,5.9c0,3.3-2.7,5.9-5.9,5.9C11.6,29,9,26.3,9,23.1C9,19.8,11.7,17.1,14.9,17.2z
		"/>
	<path class="st1" d="M54.6,29c-0.5,0-0.9,0-1.4,0l-0.3,0c-11,0-22,0-33,0c0.3-0.4,0.6-0.7,0.9-1c1.5-1.8,2.1-3.9,1.7-6.2
		c-0.1-0.4,0-0.5,0.4-0.6c2.6-0.8,5.3-1.2,8.1-1.3c0.6,0,1.1,0,1.7,0l1-0.1c2.4,0.1,4.7,0.2,7.1,0.7c3.3,0.7,6.4,1.6,9.3,3.5
		c0.9,0.6,1.8,1.3,2.7,2C52.7,26,55.9,28.9,54.6,29z"/>
	<path class="st0" d="M4.4,46.8H3.6c-1.7,0-3.2-1.4-3.2-3.2l0-21.8c0-1.7,1.4-3.2,3.2-3.2h0.8c1.7,0,3.2,1.4,3.2,3.2l0,21.8
		C7.5,45.4,6.1,46.8,4.4,46.8z"/>
	<path class="st0" d="M60.4,46.8h-0.8c-1.7,0-3.2-1.4-3.2-3.2V29.3c0-1.7,1.4-3.2,3.2-3.2h0.8c1.7,0,3.2,1.4,3.2,3.2v14.3
		C63.6,45.4,62.2,46.8,60.4,46.8z"/>
</g>
</svg>
