<?xml version="1.0" encoding="utf-8"?>
<!-- Generator: Adobe Illustrator 22.1.0, SVG Export Plug-In . SVG Version: 6.00 Build 0)  -->
<svg version="1.1" id="Layer_1" xmlns="http://www.w3.org/2000/svg" xmlns:xlink="http://www.w3.org/1999/xlink" x="0px" y="0px"
	 viewBox="0 0 64 64" style="enable-background:new 0 0 64 64;" xml:space="preserve">
<style type="text/css">
	.st0{fill:#77C044;}
	.st1{fill:#F59521;}
	.st2{fill:#00AEEF;}
	.st3{fill:#3255A6;}
	.st4{fill:#FFFFFF;}
	.st5{fill:none;stroke:#77C044;stroke-width:2;stroke-miterlimit:10;}
	.st6{fill:#00AEEF;stroke:#FFFFFF;stroke-miterlimit:10;}
	.st7{fill:#77C044;stroke:#FFFFFF;stroke-miterlimit:10;}
</style>
<g>
	<path class="st0" d="M18.6,12.6c0,1.3,0,2.6,0,3.8c0,0.1-0.3,0.3-0.4,0.4c-0.5,0.1-1,0-1.5,0.1c-2.3,0.4-3.9,2.1-4,4.6
		c-0.1,2.2-0.1,4.3-0.1,6.5c0,8.9,0,17.8,0,26.7c0,1.4,0.3,2.7,1.2,3.9c0.8,1,1.9,1.7,3.2,1.7c3,0,5.9,0,8.9,0c6.8,0,13.5,0,20.3,0
		c3.2,0,5.3-1.9,5.3-5.2c0-10.9,0-21.8,0-32.7c0-0.9-0.1-1.8-0.4-2.6c-0.8-2-2.5-2.8-4.5-2.8c-0.2,0-0.3,0-0.5,0c-0.1,0-0.3,0-0.5,0
		c0-1.4,0-2.7,0-4.1c2.9-0.3,5.4,0.6,7.4,2.7c1.6,1.7,2.3,3.8,2.4,6.1c0,10.2,0,20.4,0,30.6c0,1.7-0.1,3.5-0.4,5.2
		c-0.6,3.8-4.2,6.8-8,6.8c-9.9,0-19.9,0-29.8,0c-3.9,0-7.5-3.1-8.1-7.1c-0.3-2-0.3-4.1-0.3-6.1c0-9.6,0-19.3,0-28.9
		c0-3.6,1.4-6.6,4.6-8.5C15,12.7,16.7,12.6,18.6,12.6z"/>
	<path class="st1" d="M38.6,10.7c0.7,0,1.2,0,1.8,0c1.7,0,3.1,1.2,3.2,3.3c0,0.9-0.1,1.8,0,2.7c0.2,1.9-1.6,3.3-3.3,3.3
		c-4.3,0-8.7,0-13,0c-1.2,0-2.3,0-3.5,0c-1.8,0-3.1-1.3-3.1-3.1c0-1,0-2,0-3c0-1.8,1.3-3.1,3.1-3.1c0.6,0,1.1,0,1.8,0
		c0-2.3,0.9-4.1,2.7-5.5c1.2-0.9,2.6-1.3,4.2-1.2C34.2,4,35.7,4.8,36.9,6C38.1,7.3,38.7,8.9,38.6,10.7z M35.8,10.6
		c-0.1-1.5-0.6-2.6-1.9-3.2c-1.3-0.7-2.6-0.6-3.8,0.3c-1,0.7-1.4,1.7-1.4,2.9C31.1,10.6,33.4,10.6,35.8,10.6z"/>
	<path class="st2" d="M25.1,47.2c-3.9-3.9-3.9-10.3,0-14.3c3.9-3.9,10.3-3.9,14.3,0c3.9,3.9,3.9,10.3,0,14.3
		C35.4,51.1,29,51.1,25.1,47.2z M37.6,34.7c-3-3-7.7-3-10.7,0c-3,3-3,7.7,0,10.7c3,3,7.7,3,10.7,0C40.5,42.4,40.5,37.6,37.6,34.7z
		 M29.6,44.5l-1.8-1.8l2.7-2.7l-2.7-2.7l1.8-1.8l2.7,2.7l2.7-2.7l1.8,1.8L34,40l2.7,2.7l-1.8,1.8l-2.7-2.7L29.6,44.5z"/>
</g>
</svg>
