<?xml version="1.0" encoding="utf-8"?>
<!-- Generator: Adobe Illustrator 22.1.0, SVG Export Plug-In . SVG Version: 6.00 Build 0)  -->
<svg version="1.1" id="Layer_1" xmlns="http://www.w3.org/2000/svg" xmlns:xlink="http://www.w3.org/1999/xlink" x="0px" y="0px"
	 viewBox="0 0 64 64" style="enable-background:new 0 0 64 64;" xml:space="preserve">
<style type="text/css">
	.st0{fill:#77C044;}
	.st1{fill:#F59521;}
	.st2{fill:#00AEEF;}
	.st3{fill:#3255A6;}
	.st4{fill:#FFFFFF;}
	.st5{fill:none;stroke:#77C044;stroke-width:2;stroke-miterlimit:10;}
	.st6{fill:#00AEEF;stroke:#FFFFFF;stroke-miterlimit:10;}
	.st7{fill:#77C044;stroke:#FFFFFF;stroke-miterlimit:10;}
</style>
<g>
	<circle class="st1" cx="25.4" cy="14.3" r="14.2"/>
	<path class="st2" d="M47.4,16.3c0.8,0,1.6,0.2,2.3,1l4,4l0,0l0,0l4-4c2.9-3,7.3,1.4,4.4,4.3l-4,4l0,0l4,4c1.2,1.2,1.2,3.1,0.1,4.3
		c-1.2,1.2-3.2,1.2-4.4,0l-4-4l-4,4c-1.2,1.2-3.2,1.2-4.4,0c-1.2-1.2-1.2-3.2,0.1-4.3l4-4l0,0l-4-4c-1.5-1.4-1.1-3.3,0-4.4
		C45.9,16.7,46.6,16.4,47.4,16.3z"/>
	<path class="st0" d="M35.8,29.5C43.7,35.8,50,39.7,50,64H0.9c0-23.8,6.2-28.2,14.2-34.5c3.2,1.4,6.8,2.1,10.4,2.1
		C29,31.5,32.5,30.8,35.8,29.5z"/>
</g>
</svg>
