<?xml version="1.0" encoding="utf-8"?>
<!-- Generator: Adobe Illustrator 22.1.0, SVG Export Plug-In . SVG Version: 6.00 Build 0)  -->
<svg version="1.1" id="Layer_1" xmlns="http://www.w3.org/2000/svg" xmlns:xlink="http://www.w3.org/1999/xlink" x="0px" y="0px"
	 viewBox="0 0 64 64" style="enable-background:new 0 0 64 64;" xml:space="preserve">
<style type="text/css">
	.st0{fill:#77C044;}
	.st1{fill:#F59521;}
	.st2{fill:#00AEEF;}
	.st3{fill:#3255A6;}
	.st4{fill:#FFFFFF;}
	.st5{fill:none;stroke:#77C044;stroke-width:2;stroke-miterlimit:10;}
	.st6{fill:#00AEEF;stroke:#FFFFFF;stroke-miterlimit:10;}
	.st7{fill:#77C044;stroke:#FFFFFF;stroke-miterlimit:10;}
</style>
<g>
	<g>
		<path class="st2" d="M14.5,37.1c-0.8-0.3-1.5-0.5-2.2-0.8c0-4.8,0-9.6,0-14.4c1.4,0.5,2.6,0.9,3.9,1.4c1.6,0.6,3.1,0.4,4.5-0.5
			c2-1.3,4-2.5,6.4-3c1.7-0.3,3.1,0.1,4.5,1.3c-1.3,0.7-2.5,1.4-3.6,2.1c-1,0.7-2.1,1.4-2.9,2.3c-1.2,1.5-1.1,3.3,0.1,4.8
			c1.2,1.5,2.9,1.9,4.7,1.1c1.4-0.6,2.8-1.3,4.3-1.9c1.3-0.6,2.1-0.4,3.1,0.6c2.6,2.6,5.1,5.1,7.7,7.7c0.7,0.7,0.9,1.6,0.4,2.4
			c-0.4,0.7-1.2,0.9-2.1,0.8C42.4,41,42,40.5,41.5,40c-0.6-0.6-1.2-1.2-1.8-1.7c0,0-0.1,0-0.4-0.1c0.6,1.1,1.4,1.9,2.3,2.6
			c0.9,0.7,1.2,1.5,0.8,2.5C42,44,41.2,44.4,40.1,44c-0.6-0.2-1.2-0.5-1.6-0.9c-0.9-0.8-1.6-1.8-2.5-2.6c-0.1,0.1-0.2,0.2-0.3,0.3
			c0.3,0.3,0.5,0.7,0.8,1c0.5,0.6,1.1,1.1,1.7,1.7c0.8,0.9,0.9,2.2,0.1,2.9c-0.8,0.7-1.9,0.6-2.8-0.3c-0.8-0.8-1.5-1.6-2.3-2.5
			c-0.2-0.2-0.4-0.4-0.6-0.5c-0.1,0-0.1,0.1-0.2,0.1c0.1,0.2,0.1,0.5,0.3,0.7c0.6,0.6,1.2,1.2,1.8,1.9c0.3,0.3,0.5,0.7,0.7,1.2
			c0.2,0.8-0.2,1.6-0.8,1.9c-0.6,0.3-1.7,0.2-2.2-0.2c-0.7-0.6-1-1.2-1-2.1c0-1.6-1-2.7-2.4-3.5c-0.3-0.1-0.5-0.4-0.6-0.6
			c-0.5-1.1-1.2-1.8-2.3-2.3c-0.2-0.1-0.4-0.3-0.5-0.5c-0.4-1-1.2-1.8-2.2-2.2c-0.2-0.1-0.4-0.3-0.5-0.5c-0.7-1.6-1.9-2.6-3.6-2.6
			c-1.9-0.1-3.3,0.8-4.2,2.5C14.7,36.8,14.6,37,14.5,37.1z"/>
		<path class="st1" d="M53.6,23.4c0,4.2,0,8.4,0,12.7c-1.6,0.3-3.2,0.6-4.9,0.7c-0.6,0-1.4-0.4-1.9-0.9c-2.8-2.7-5.4-5.4-8.1-8.1
			c-1.2-1.2-2.2-1.4-3.8-0.6c-1.7,0.9-3.3,1.8-5,2.6c-0.6,0.3-1.2,0.5-1.9,0.5c-1.1,0-2-0.8-2.3-1.9c-0.2-1.1,0.3-2.1,1.3-2.7
			c2-1,3.9-2.1,5.9-3.1c1.4-0.8,2.8-1.5,4.3-2.3c1.3-0.7,2.6-0.6,3.7,0.3c1.3,1.1,2.7,2.2,3.9,3.3c0.9,0.8,1.9,1.1,3.2,0.8
			C49.9,24.2,51.7,23.8,53.6,23.4z"/>
		<path class="st1" d="M21.1,38.7c1.9-0.1,2.5,0.5,2.7,2.7c2.2,0.3,2.9,1.1,2.5,3c0.9-0.1,1.8,0,2.4,0.8c1.2,1.5,0.3,3.8-1.8,4.3
			c-0.4,0.1-0.8,0.2-1.2,0.1c-1.4-0.1-2.1-1.2-1.6-2.5c0.1-0.2,0.2-0.4,0.2-0.7c-2.4,0.6-3.7-0.1-3-2.8c-0.9,0.3-1.7,0.6-2.5-0.2
			c-0.7-0.8-0.5-1.6-0.2-2.5c-0.4,0.1-0.8,0.2-1.2,0.3c-0.9,0.1-1.7-0.6-1.8-1.4c-0.2-1.4,0.9-3.2,2.2-3.7
			C19.4,35.5,21.4,36.4,21.1,38.7z"/>
	</g>
	<circle class="st5" cx="32" cy="32" r="30.6"/>
</g>
</svg>
