<?xml version="1.0" encoding="utf-8"?>
<!-- Generator: Adobe Illustrator 22.1.0, SVG Export Plug-In . SVG Version: 6.00 Build 0)  -->
<svg version="1.1" id="Layer_1" xmlns="http://www.w3.org/2000/svg" xmlns:xlink="http://www.w3.org/1999/xlink" x="0px" y="0px"
	 viewBox="0 0 64 64" style="enable-background:new 0 0 64 64;" xml:space="preserve">
<style type="text/css">
	.st0{fill:#77C044;}
	.st1{fill:#F59521;}
	.st2{fill:#00AEEF;}
	.st3{fill:#3255A6;}
	.st4{fill:#FFFFFF;}
	.st5{fill:none;stroke:#77C044;stroke-width:2;stroke-miterlimit:10;}
	.st6{fill:#00AEEF;stroke:#FFFFFF;stroke-miterlimit:10;}
	.st7{fill:#77C044;stroke:#FFFFFF;stroke-miterlimit:10;}
</style>
<g>
	<path class="st0" d="M6.3,48.9c0-2.3-0.2-4.5,0-6.7c0.2-2.4,2.4-4.2,4.8-4.3c2.9-0.1,5.8,0,8.8,0c1.8,0,3.6,0,5.3,0
		c0.2,0,0.4,0,0.7,0c0,2.1,0,4.2,0,6.2c0.7,0,1.3,0,2,0c0-2.1,0-4.1,0-6.2c0.7,0,1.3,0,1.9,0c0,2.1,0,4.1,0,6.3c0.7,0,1.4,0,2,0
		c4,0,8,0,12,0c0.3,0,0.7-0.2,0.9-0.4c3.6-3.6,7.2-7.2,10.8-10.7c0.2-0.2,0.3-0.4,0.5-0.5c0.3-0.3,0.7-0.4,1.2-0.2
		c0.5,0.2,0.5,0.6,0.5,1c0,3.5,0,7.1,0,10.6c0,1.7,0,3.4,0,5.1C40.6,48.9,23.4,48.9,6.3,48.9z"/>
	<path class="st2" d="M31.8,42.1c0-1.4,0-2.8,0-4.3c1.6,0,3.3,0,5.1,0c-0.2-1-0.3-2-0.6-2.9c-0.2-0.8-0.5-1.5-0.9-2.2
		c-1.3-2.5-1.9-5.2-2-8c0-0.4-0.1-0.8-0.1-1.2c0-0.1,0-0.1-0.1-0.2c-0.7,0-1.4,0-2.1,0c0-3.1,0-6.1,0-9.2c2.4,0,4.8,0,7.2,0
		c0,3,0,6,0,9.1c-1.2,0-2.3,0-3.6,0c0.1,0.8,0.1,1.6,0.1,2.3c0.2,2.4,0.9,4.7,2,6.8c0.8,1.5,1.3,3.1,1.4,4.9c0,0.3,0.2,0.4,0.5,0.5
		c0.7,0,1.2-0.1,1.7-0.7c1.9-2,3.9-4,5.9-5.9c2.3-2.2,5.6-2.3,7.8-0.2c0.1,0.1,0.2,0.2,0.3,0.3c-0.5,0.5-1,0.9-1.4,1.3
		c-3,3-6,6-9.1,9.1c-0.2,0.2-0.5,0.4-0.8,0.4c-3.6,0-7.3,0-10.9,0C32.1,42.1,32,42.1,31.8,42.1z"/>
	<path class="st1" d="M6.3,51.5c17.2,0,34.3,0,51.5,0c0,4.2,0,8.3,0,12.5c-0.9,0-1.9,0-2.9,0c0-3.2,0-6.4,0-9.7
		c-15.3,0-30.5,0-45.8,0c0,3.2,0,6.4,0,9.7c-1,0-1.9,0-2.9,0C6.3,59.8,6.3,55.7,6.3,51.5z"/>
	<path class="st1" d="M63.1,64c-1,0-1.9,0-2.9,0c0-0.3,0-0.5,0-0.8c0-11.1,0-22.1,0-33.2c0-0.2,0-0.4,0-0.7c0.1-0.8,0.6-1.4,1.4-1.4
		c0.8,0,1.4,0.5,1.5,1.3c0,0.2,0,0.3,0,0.5c0,11.2,0,22.3,0,33.5C63.1,63.5,63.1,63.7,63.1,64z"/>
	<path class="st1" d="M3.8,64c-1,0-1.9,0-2.9,0c0-0.2,0-0.4,0-0.6c0-7.8,0-15.5,0-23.3c0-1.3,1.1-2.1,2.2-1.5
		c0.6,0.3,0.8,0.9,0.8,1.5c0,3.3,0,6.6,0,10c0,4.4,0,8.8,0,13.3C3.8,63.6,3.8,63.7,3.8,64z"/>
	<path class="st2" d="M53.2,19.1c2.5,0,4.6,2,4.6,4.6c0,2.5-2,4.6-4.6,4.6c-2.5,0-4.6-2-4.6-4.6C48.5,21.2,50.6,19.1,53.2,19.1z"/>
	<path class="st0" d="M34.9,12.7c-0.6,0-1.2,0-1.8,0c0-0.1-0.1-0.2-0.1-0.3c-0.3-0.9-1-1.3-1.8-1.2c-0.8,0.1-1.4,0.8-1.4,1.7
		c0,4,0,7.9,0,11.9c0,3.5,0,7,0,10.5c0,0.2,0,0.4,0,0.6c-0.7,0-1.2,0-1.9,0c0-0.1,0-0.3,0-0.4c0-7.5,0-15.1,0-22.6
		c0-2,1.5-3.5,3.4-3.5C33.3,9.2,34.8,10.7,34.9,12.7z"/>
</g>
</svg>
