<?xml version="1.0" encoding="utf-8"?>
<!-- Generator: Adobe Illustrator 22.1.0, SVG Export Plug-In . SVG Version: 6.00 Build 0)  -->
<svg version="1.1" id="Layer_1" xmlns="http://www.w3.org/2000/svg" xmlns:xlink="http://www.w3.org/1999/xlink" x="0px" y="0px"
	 viewBox="0 0 64 64" style="enable-background:new 0 0 64 64;" xml:space="preserve">
<style type="text/css">
	.st0{fill:#77C044;}
	.st1{fill:#F59521;}
	.st2{fill:#00AEEF;}
	.st3{fill:#3255A6;}
	.st4{fill:#FFFFFF;}
	.st5{fill:none;stroke:#77C044;stroke-width:2;stroke-miterlimit:10;}
	.st6{fill:#00AEEF;stroke:#FFFFFF;stroke-miterlimit:10;}
	.st7{fill:#77C044;stroke:#FFFFFF;stroke-miterlimit:10;}
</style>
<g>
	<path class="st0" d="M31.9,63.7c-0.3-0.1-0.5-0.2-0.8-0.3c-1.6-0.6-2.6-2.3-2.5-4c0.4-5,0.7-10.1,1.1-15.1c0.1-1.4,0.2-2.8,0.3-4.1
		c0.2-1.7,1-2.8,2.6-3.4c0.1,0,0.2-0.1,0.3-0.2c-1.1-1.2-0.7-2.6-0.5-3.9c0.2-1.7,0.5-3.4,0.8-5.1c0.1-0.3,0.2-0.5,0.5-0.5
		c0.5-0.1,1-0.2,1.6-0.3c0,0.4-0.1,0.7-0.1,1c0,2.3,0.1,4.7,0.2,7c0,0.2-0.1,0.5-0.1,0.7c-0.1,0.3-0.2,0.6-0.4,0.9
		c3.4,0,6.7,0,10.1,0c0-0.2,0-0.5,0-0.8c-1,0-1.9,0-2.8,0c-0.2,0-0.5-0.2-0.6-0.3c-1.7-2.8-3.3-5.6-5-8.5c-0.1-0.1-0.1-0.2-0.2-0.4
		c1.6-0.3,3.1-0.6,4.6-0.9c1.6-0.3,2.7-1.6,2.7-3.2c0-1.5-1-2.8-2.4-3.2c-0.5-0.1-1.1-0.1-1.6,0c-1.3,0.2-2.6,0.5-3.9,0.8
		c-0.2,0-0.3,0-0.6,0.1c0.3-0.8,0.8-1.4,1.5-1.7c1.9-1.1,3.8-1.1,5.8-0.3c1.4,0.5,2.4,1.4,3.4,2.5c4,4.5,6.6,9.7,7.9,15.6
		c0.4,1.6,0.3,3.2-0.4,4.7c-0.1,0.1-0.1,0.3-0.2,0.5c-0.5,2-2,3.1-4,3.1c-3.7,0-7.3,0-11,0c-0.2,0-0.4,0-0.7,0
		c-0.1,0.9-0.2,1.8-0.2,2.7c-0.3,4.2-0.6,8.4-0.9,12.6c-0.1,2-1.2,3.4-3.1,3.9c-0.1,0-0.1,0.1-0.2,0.1
		C32.7,63.7,32.3,63.7,31.9,63.7z"/>
	<path class="st6" d="M2.4,31c0.2-1.2,0.2-2.3,0.5-3.5C3.5,25.3,4,23,4.8,20.8c0.9-2.5,2.6-4.2,5.3-4.9c0.4-0.1,0.8-0.1,1-0.2
		c0.2,0.9,0.3,1.8,0.5,2.7c0,0-0.2,0-0.4,0c-2-0.1-3.6,1.4-3.5,3.5c0.3,5,2.2,9.3,5.5,13c0.4,0.4,0.8,0.8,0.6,1.6c0.3,0,0.5,0,0.7,0
		c3.6,0,7.2,0,10.8,0c1.3,0,2.4,0.5,3.2,1.5c0.5,0.6,0.7,1.2,0.6,2c-0.4,5.4-0.8,10.9-1.2,16.3c0,0.7-0.1,1.4-0.2,2.1
		c-0.2,1.6,0,3.2,1.2,4.5c-0.6,0.2-1.2,0.5-1.7,0.7c-0.4,0-0.8,0-1.2,0c-2-0.6-3.2-1.9-3.3-4.1c-0.3-4.4-0.6-8.7-0.9-13.1
		c0-0.7-0.1-1.4-0.2-2.2c-0.4,0-0.8,0-1.2,0c-3.9,0-7.8,0-11.7-0.1c-3.5-0.1-5.7-2.3-6.1-5.8c-0.1-1.1-0.2-2.2-0.4-3.2
		C2.4,33.8,2.4,32.4,2.4,31z"/>
	<path class="st1" d="M61.6,61.8c-4.1,0-8.1,0-12.2,0c-1.7,0-3.5,0-5.2,0c0-5.2,0-10.4,0-15.6c5.8,0,11.6,0,17.4,0
		C61.6,51.4,61.6,56.6,61.6,61.8z"/>
	<path class="st2" d="M15.5,0.3c0.4,0.1,0.8,0.2,1.2,0.3c2.8,0.9,4.9,3.4,5,6.3c0.2,3.2-1.5,5.9-4.4,7.1c-0.4,0.2-0.6,0.2-1-0.1
		c-1.1-0.8-2.5-0.8-3.7,0c-0.3,0.2-0.6,0.2-0.9,0.1c-2.8-1.3-4.5-4.2-4.1-7.4c0.3-3,2.8-5.5,5.8-6.1c0.1,0,0.3-0.1,0.4-0.1
		C14.4,0.3,15,0.3,15.5,0.3z"/>
	<path class="st7" d="M12,16.5c0.1-1,0.5-1.7,1.4-2.2c0.9-0.5,1.8-0.4,2.7,0.2c1.9,1.5,3.9,2.9,5.8,4.4c1.4,1.1,2.9,2.2,4.3,3.3
		c0.2,0.2,0.6,0.3,0.9,0.2c4.2-0.8,8.4-1.7,12.7-2.5c1.6-0.3,2.9,0.5,3.2,2c0.3,1.4-0.6,2.6-2.2,3c-4.7,0.9-9.3,1.9-14,2.8
		c-0.9,0.2-1.7,0.1-2.5-0.5c-3.7-2.8-7.4-5.7-11.1-8.5C12.4,18.1,12,17.4,12,16.5z"/>
	<path class="st0" d="M34.7,16.7c-3.9-0.1-7.1-3.2-7-7.1c0-4,3.2-7.1,7.2-7c3.8,0,7,3.3,6.9,7.2C41.8,13.6,38.6,16.8,34.7,16.7z"/>
	<path class="st6" d="M24.9,35.6c-0.2,0-0.3,0-0.5,0c-2.9,0-5.9,0-8.8,0c-0.3,0-0.6-0.1-0.8-0.3c-3.8-3.7-5.9-8.2-6.3-13.5
		c-0.1-1.1,0.3-1.9,1.3-2.5c0.9-0.5,1.8-0.4,2.7,0.2c0.7,0.5,1,1.1,1,1.9C14,28,17.7,32.9,23.8,35c0.4,0.1,0.7,0.3,1.1,0.5
		C24.9,35.5,24.9,35.6,24.9,35.6z"/>
	<path class="st2" d="M15.3,25.8c-0.8-1.8-0.9-3.7-1.2-5.6c0.6,0.5,1.2,0.9,1.8,1.4c0.1,0.1,0.1,0.4,0.1,0.6
		C15.8,23.4,15.5,24.5,15.3,25.8z"/>
	<path class="st1" d="M20.1,61.8c-5.8,0-11.6,0-17.4,0c0-5.2,0-10.3,0-15.5c5.8,0,11.6,0,17.4,0C20.1,51.5,20.1,56.6,20.1,61.8z"/>
</g>
</svg>
