<?xml version="1.0" encoding="utf-8"?>
<!-- Generator: Adobe Illustrator 22.1.0, SVG Export Plug-In . SVG Version: 6.00 Build 0)  -->
<svg version="1.1" id="Layer_1" xmlns="http://www.w3.org/2000/svg" xmlns:xlink="http://www.w3.org/1999/xlink" x="0px" y="0px"
	 viewBox="0 0 64 64" style="enable-background:new 0 0 64 64;" xml:space="preserve">
<style type="text/css">
	.st0{fill:#77C044;}
	.st1{fill:#F59521;}
	.st2{fill:#00AEEF;}
	.st3{fill:#3255A6;}
	.st4{fill:#FFFFFF;}
	.st5{fill:none;stroke:#77C044;stroke-width:2;stroke-miterlimit:10;}
	.st6{fill:#00AEEF;stroke:#FFFFFF;stroke-miterlimit:10;}
	.st7{fill:#77C044;stroke:#FFFFFF;stroke-miterlimit:10;}
</style>
<g>
	<path class="st2" d="M33.6,0.9c0.9,0.2,1.9,0.3,2.8,0.6c7.4,2,12.1,9.1,11.3,16.6c-0.4,3.4-1.7,6.6-3.6,9.4
		c-2.3,3.4-4.8,6.8-7.3,10.1c-1.4,1.9-2.9,3.8-4.3,5.6c-0.1,0.1-0.2,0.2-0.3,0.4c-0.1-0.1-0.1-0.1-0.2-0.2
		c-3.2-4.2-6.3-8.5-9.5-12.7c-2-2.8-3.9-5.7-5-9c-3.1-9.1,2.2-18.5,11.6-20.5C29.7,1,30.3,1,30.9,0.9C31.8,0.9,32.7,0.9,33.6,0.9z
		 M36.1,16.4c0-2.1-1.8-3.9-3.9-3.9c-2.2,0-3.9,1.7-3.9,3.9c0,2.1,1.8,3.9,3.9,3.9C34.4,20.3,36.1,18.6,36.1,16.4z"/>
	<path class="st0" d="M1.1,42.5c0.1-0.6,0.2-1.3,0.4-1.9c1.5-5.3,6.4-8.8,12-8.6c5.4,0.3,9.9,4.4,10.8,9.8c0.5,2.8-0.1,5.4-1.4,7.8
		c-0.5,1.1-1.1,2.1-1.8,3.1c-2.7,3.5-5.5,7-8.2,10.5c-0.2-0.1-0.2-0.2-0.3-0.2C10,59.8,7.5,56.7,5,53.5c-1.7-2.1-3-4.5-3.6-7.2
		c-0.1-0.5-0.2-0.9-0.3-1.4C1.1,44.1,1.1,43.3,1.1,42.5z M16.7,43.7c0-2.2-1.7-3.9-3.9-3.9c-2.1,0-3.9,1.7-3.9,3.8
		c0,2.2,1.7,3.9,3.8,4C14.9,47.6,16.6,45.9,16.7,43.7z"/>
	<path class="st1" d="M63.4,44.9c-0.1,0.6-0.3,1.3-0.4,1.9c-0.6,2.4-1.8,4.5-3.3,6.4c-2.5,3.3-5.2,6.5-7.8,9.7c0,0-0.1,0.1-0.2,0.1
		c-0.9-1-1.7-2.1-2.6-3.1c-2.3-2.8-4.7-5.6-6.6-8.7c-1.5-2.5-2.5-5.1-2.4-8c0.2-6.7,6.4-12,13-11.2c5.5,0.7,9.4,4.7,10.2,10.1
		c0,0.1,0.1,0.2,0.1,0.3C63.4,43.3,63.4,44.1,63.4,44.9z M51.8,39.8c-2.1,0-3.9,1.7-3.9,3.8c0,2.2,1.7,4,3.8,4c2.2,0,3.9-1.7,4-3.8
		C55.6,41.6,53.9,39.8,51.8,39.8z"/>
</g>
</svg>
