<?xml version="1.0" encoding="utf-8"?>
<!-- Generator: Adobe Illustrator 22.1.0, SVG Export Plug-In . SVG Version: 6.00 Build 0)  -->
<svg version="1.1" id="Layer_1" xmlns="http://www.w3.org/2000/svg" xmlns:xlink="http://www.w3.org/1999/xlink" x="0px" y="0px"
	 viewBox="0 0 64 64" style="enable-background:new 0 0 64 64;" xml:space="preserve">
<style type="text/css">
	.st0{fill:#77C044;}
	.st1{fill:#F59521;}
	.st2{fill:#00AEEF;}
	.st3{fill:#3255A6;}
	.st4{fill:#FFFFFF;}
	.st5{fill:none;stroke:#77C044;stroke-width:2;stroke-miterlimit:10;}
	.st6{fill:#00AEEF;stroke:#FFFFFF;stroke-miterlimit:10;}
	.st7{fill:#77C044;stroke:#FFFFFF;stroke-miterlimit:10;}
</style>
<g>
	<path class="st0" d="M18.1,10.9c0,1.3,0,2.6,0,3.9c0,0.1-0.3,0.3-0.5,0.4c-0.5,0.1-1,0-1.5,0.1c-2.4,0.4-4,2.2-4.1,4.8
		C12,22.3,12,24.5,12,26.8c0,9.1,0,18.3,0,27.4c0,1.5,0.3,2.8,1.2,4c0.9,1,1.9,1.7,3.3,1.7c3.1,0,6.1,0,9.2,0c7,0,13.9,0,20.9,0
		c3.3,0,5.4-2,5.4-5.3c0-11.2,0-22.4,0-33.6c0-0.9-0.1-1.8-0.4-2.6c-0.8-2.1-2.5-2.8-4.6-2.9c-0.2,0-0.3,0-0.5,0c-0.1,0-0.3,0-0.5,0
		c0-1.4,0-2.8,0-4.2c3-0.3,5.5,0.6,7.6,2.8c1.6,1.7,2.4,3.9,2.4,6.2c0,10.5,0,21,0,31.5c0,1.8-0.1,3.6-0.4,5.3
		c-0.7,3.9-4.3,6.9-8.3,7c-10.2,0-20.5,0-30.7,0c-4,0-7.7-3.2-8.3-7.3C8,54.6,8.1,52.5,8,50.4c0-9.9,0-19.8,0-29.7
		C8,17,9.4,14,12.7,12C14.4,11,16.2,10.9,18.1,10.9z"/>
	<path class="st1" d="M38.7,8.9c0.7,0,1.3,0,1.9,0c1.8,0,3.2,1.3,3.3,3.4c0,0.9-0.1,1.8,0,2.8c0.2,2-1.7,3.4-3.4,3.4
		c-4.5,0-8.9,0-13.4,0c-1.2,0-2.4,0-3.6,0c-1.8,0-3.2-1.4-3.2-3.2c0-1,0-2.1,0-3.1c0-1.8,1.3-3.2,3.2-3.2c0.6,0,1.2,0,1.8,0
		c0-2.3,0.9-4.2,2.8-5.6c1.3-0.9,2.7-1.3,4.3-1.3c1.8,0.1,3.4,0.8,4.6,2.1C38.2,5.5,38.7,7.1,38.7,8.9z M35.8,8.9
		c-0.1-1.5-0.6-2.6-1.9-3.3c-1.3-0.7-2.7-0.6-3.9,0.3c-1,0.7-1.5,1.7-1.4,3C30.9,8.9,33.3,8.9,35.8,8.9z"/>
	<path class="st2" d="M46.4,37.2c-0.4-0.3-0.6-0.5-0.9-0.7c-0.6-0.3-1.2-0.7-1.8-0.8c-1.2-0.2-2.5-0.2-3.7,0.3
		c-0.3,0.1-0.5,0.4-0.7,0.6c-0.2,0.3-0.6,0.4-0.8,0.1c-0.4-0.8-1.2-0.9-2-1c-1.3-0.2-2.5-0.2-3.8,0.3c-0.3,0.1-0.4,0.4-0.7,0.6
		c-0.1,0.1-0.2,0.3-0.3,0.3c-0.1,0-0.3-0.1-0.4-0.2c-0.2-0.2-0.4-0.5-0.7-0.6c-1.5-0.5-3.1-0.6-4.6,0c-0.3,0.1-0.7,0.4-0.9,0.7
		c-0.3,0.4-0.6,0.4-0.9-0.1c-0.1-0.2-0.3-0.4-0.4-0.5c-1.6-0.6-3.3-0.7-4.9-0.1c-0.3,0.1-0.6,0.5-0.9,0.7C18.1,36.9,18,37,17.9,37
		c-0.1,0-0.2-0.2-0.3-0.4c0-0.2,0-0.3,0-0.5c1.5-5.5,5.1-8.7,10.5-10c0.8-0.2,1.6-0.3,2.5-0.4c0.5,0,0.6-0.2,0.6-0.6
		c0-0.7,0.3-1,0.8-0.9c0.5,0.1,0.7,0.4,0.7,0.9c0,1,0.1,0.9,1,1c5.6,0.5,9.7,3.2,11.9,8.4c0.3,0.7,0.5,1.4,0.7,2.1
		C46.4,36.7,46.4,36.9,46.4,37.2z"/>
	<path class="st2" d="M32.8,45c0,1.9,0,3.8,0,5.6c0,1.9-1.8,3.3-3.7,3c-2.2-0.5-3.4-2.5-2.7-4.4c0.1-0.4,0.3-0.8,0.9-0.7
		c0.5,0.1,0.7,0.5,0.5,1.1c-0.2,0.9,0,1.6,0.7,2c0.6,0.5,1.4,0.4,2.1,0c0.6-0.4,0.7-0.9,0.7-1.6c0-3.6,0-7.3,0-10.9
		c0-0.3,0.1-0.8,0.4-1c0.5-0.4,1.1,0.1,1.1,0.8c0,1.6,0,3.1,0,4.7C32.8,44.1,32.8,44.5,32.8,45C32.8,45,32.8,45,32.8,45z"/>
</g>
</svg>
