<?xml version="1.0" encoding="utf-8"?>
<!-- Generator: Adobe Illustrator 22.1.0, SVG Export Plug-In . SVG Version: 6.00 Build 0)  -->
<svg version="1.1" id="Layer_1" xmlns="http://www.w3.org/2000/svg" xmlns:xlink="http://www.w3.org/1999/xlink" x="0px" y="0px"
	 viewBox="0 0 64 64" style="enable-background:new 0 0 64 64;" xml:space="preserve">
<style type="text/css">
	.st0{fill:#77C044;}
	.st1{fill:#F59521;}
	.st2{fill:#00AEEF;}
	.st3{fill:#3255A6;}
	.st4{fill:#FFFFFF;}
	.st5{fill:none;stroke:#77C044;stroke-width:2;stroke-miterlimit:10;}
	.st6{fill:#00AEEF;stroke:#FFFFFF;stroke-miterlimit:10;}
	.st7{fill:#77C044;stroke:#FFFFFF;stroke-miterlimit:10;}
</style>
<g>
	<path class="st0" d="M50.6,11.8c0.9-1,1.8-2,2.7-3c13.2,11.3,14.6,33.3,0.5,46.5c-0.9-1-1.8-1.9-2.8-3c5.6-5.6,8.6-12.3,8.5-20.3
		C59.5,24,56.3,17.3,50.6,11.8z"/>
	<path class="st0" d="M10.7,8.7c0.9,1,1.8,2,2.8,3.1c-5.7,5.5-8.9,12.2-9,20.1C4.3,39.8,7.3,46.5,13,52.2c-0.5,0.5-0.9,1-1.3,1.5
		c-0.4,0.5-0.9,1-1.4,1.5C-2.2,44.5-4.2,22.2,10.7,8.7z"/>
	<path class="st1" d="M17.9,16.8c0.9,1,1.8,2,2.8,3c-3.4,3.4-5.4,7.3-5.5,12.1c-0.1,4.7,1.7,8.8,5,12.3c-0.9,1-1.8,2-2.7,3
		C9.4,40.4,8.2,25.2,17.9,16.8z"/>
	<path class="st1" d="M43.3,19.8c0.9-1,1.8-2,2.7-2.9c8.3,6.8,10,21.4,0.5,30.5c-0.9-1-1.8-2-2.7-3C50.8,36.9,50.2,26.4,43.3,19.8z"
		/>
	<path class="st2" d="M32.1,25.8c3.5,0.1,6.4,3,6.3,6.5c0,3.5-3,6.4-6.5,6.4c-3.6,0-6.5-3-6.4-6.6C25.6,28.5,28.6,25.7,32.1,25.8z"
		/>
</g>
</svg>
