<?xml version="1.0" encoding="utf-8"?>
<!-- Generator: Adobe Illustrator 22.1.0, SVG Export Plug-In . SVG Version: 6.00 Build 0)  -->
<svg version="1.1" id="Layer_1" xmlns="http://www.w3.org/2000/svg" xmlns:xlink="http://www.w3.org/1999/xlink" x="0px" y="0px"
	 viewBox="0 0 16 16" style="enable-background:new 0 0 16 16;" xml:space="preserve">
<style type="text/css">
	.st0{fill:#FFFFFF;}
</style>
<path class="st0" d="M8,0C3.6,0,0,3.6,0,8s3.6,8,8,8s8-3.6,8-8S12.4,0,8,0z M8.5,12.8C8.3,13,8,13.1,7.8,13.1S7.3,13,7.1,12.8
	c-0.4-0.4-0.4-1,0-1.4l2.5-2.5H3v-2h6.3L7.1,4.7c-0.4-0.4-0.4-1,0-1.4s1-0.4,1.4,0l4.8,4.8L8.5,12.8z"/>
</svg>
