<svg xmlns="http://www.w3.org/2000/svg" width="186.648" height="101.661" viewBox="0 0 186.648 101.661">
  <g id="bat-logo" transform="translate(394.648 88.446)">
    <g id="Group_126" data-name="Group 126">
      <path id="Path_911" data-name="Path 911" d="M-366.219-18.7l1.288,1.6V-7h3.163V-18.7Z" fill="#00286e"/>
      <path id="Path_912" data-name="Path 912" d="M-251.369-18.578l1.27,1.6V-6.889h3.022V-18.578Z" fill="#00286e"/>
      <path id="Path_913" data-name="Path 913" d="M-347.409-18.578l1.286,1.7V-6.782h3.167v-11.8Z" fill="#00286e"/>
      <path id="Path_914" data-name="Path 914" d="M-359.456-15.5l.584-3.193h9.713l.487,3.092-1.649-1.712h-2.356V-6.889H-355.7V-17.437h-1.857Z" fill="#00286e"/>
      <path id="Path_915" data-name="Path 915" d="M-332.188-15.369l-.232-2.864c-1.88-.241-3.407-.936-5.276-.118-1.761.678-3.481,3.885-1.047,5.606,1.163.936,6.43,3,2.582,4.718a3.273,3.273,0,0,1-3.856-1.954v1.715a7.742,7.742,0,0,0,3.856,1.377c3.384.242,5.011-2.86,3.848-4.92-1.278-1.491-2.567-1.955-4.088-2.993-1.179-.7-.941-2.755,0-3.1a3.157,3.157,0,0,1,2.81.584Z" fill="#00286e"/>
      <path id="Path_916" data-name="Path 916" d="M-330.2-18.817l1.413,1.722V-7h3.263v-5.379h4.337V-7h3.376v-11.7h-3.376v4.566h-4.337v-4.69Z" fill="#00286e"/>
      <path id="Path_917" data-name="Path 917" d="M-293.938-6.889l2.214-9.628-1.053-1.96h3.721l2.709,5.518L-283.2-18.7h2.819l1.878,11.807h-3.184l-1.388-8.614-4.088,7.708-3.972-7.574L-293-6.889Z" fill="#00286e"/>
      <path id="Path_918" data-name="Path 918" d="M-276.755-18.7l1.281,1.377v10.43h7.95V-9.174l-1.413,1.028h-3.5v-4.714h3.864v-1.477h-3.864v-2.983h4.21V-18.7Z" fill="#00286e"/>
      <path id="Path_919" data-name="Path 919" d="M-234.069-15.043l-.246-2.86c-5.374-2.294-10.517.7-9.35,6.78.353,1.949,3.282,4.234,5.842,4.126a8.514,8.514,0,0,0,3.623-.7V-9.75c-1.741,1.378-3.4,2.291-5.719-.12-2.469-3.089-.834-7.8,3.625-7.446.934.56,1.393,1.488,2.225,2.273" fill="#00286e"/>
      <path id="Path_920" data-name="Path 920" d="M-219.11-18.7l1.177,2.176v9.631h1.286V-14.8l6.893,7.913H-208V-18.7h-1.513v7.685l-6.432-7.685Z" fill="#00286e"/>
      <path id="Path_921" data-name="Path 921" d="M-385.99-20.536c3.625.578,3.394,4.929.239,5.958,4.447,1.387,4.447,6.433-.467,7.689h-7.259V-18.7l-1.171-1.84Zm-4.441,1.02v4.938c2.459,0,3.74-.342,3.875-2.4C-386.338-18.82-387.744-19.958-390.431-19.516Zm0,6.078v5.172c2.935,0,4.441,0,4.555-2.631C-385.751-13.438-387.6-13.768-390.431-13.438Z" fill="#00286e"/>
      <path id="Path_922" data-name="Path 922" d="M-373.37-18.578c4.462,0,4.239,5.275.366,6.077l5.729,5.612h-4.109l-5.119-4.92v4.92h-2.923V-16.974l-1.063-1.6Zm-3.025.554v4.36c2.108,0,3.268-.339,3.391-2.164C-372.789-17.557-374.05-18.145-376.395-18.024Z" fill="#00286e"/>
      <path id="Path_923" data-name="Path 923" d="M-258.624-18.578c4.323,0,4.08,4.917.351,5.719l6.188,5.97H-256.3l-5.367-5.386v5.386h-2.678V-17.095l-1.082-1.483Zm-2.93,1.021v4.366c1.978,0,3.151-.247,3.281-2.065C-258.058-16.974-259.332-17.9-261.554-17.557Z" fill="#00286e"/>
      <path id="Path_924" data-name="Path 924" d="M-309.381-6.887l5.6-12.509-1.278-1.833h4.093l6.075,14.342h-3.373l-2.018-4.825h-5.012l-2.113,4.825Zm8.763-5.858-1.984-5.606-2.22,5.606Z" fill="#00286e"/>
      <path id="Path_925" data-name="Path 925" d="M-232.321-6.887l4.69-10.208-1.087-1.48h3.417l4.895,11.688h-2.779l-1.54-3.9h-4.328l-1.633,3.9Zm7.265-4.825-1.655-4.573-1.866,4.573Z" fill="#00286e"/>
      <path id="Path_926" data-name="Path 926" d="M-347.288,2.76l.6-3.217h11.676l.464,3.087L-336.178.908h-3.255V13.074h-2.942V.811h-3.037Z" fill="#00286e"/>
      <path id="Path_927" data-name="Path 927" d="M-283.32,5.153l-.118-2.855c-5.366-2.411-10.521.7-9.461,6.777.463,1.946,3.384,4.24,5.964,4a7.862,7.862,0,0,0,3.5-.574V10.451c-1.632,1.368-3.266,2.292-5.606-.233-2.45-2.986-.948-7.806,3.632-7.349a9.777,9.777,0,0,1,2.092,2.284" fill="#00286e"/>
      <path id="Path_928" data-name="Path 928" d="M-271.026,5.281l-.116-2.869c-5.382-2.4-10.544.682-9.485,6.752a6.176,6.176,0,0,0,5.95,4.024,8.175,8.175,0,0,0,3.535-.555V10.548c-1.65,1.381-3.28,2.3-5.617-.221-2.583-2.988-.941-7.8,3.619-7.332a10.037,10.037,0,0,1,2.114,2.286" fill="#00286e"/>
      <path id="Path_929" data-name="Path 929" d="M-311.726,1.717c3.511.46,3.283,4.016.227,4.937,4.329,1.146,4.087,5.846-.349,6.308h-6.907V3.214l-1.175-1.5Zm-4.215.808V6.654c2.336,0,3.618-.224,3.74-1.952C-311.973,3.093-313.376,2.177-315.941,2.525Zm0,5.049v4.355c2.808,0,4.328,0,4.328-2.17C-311.386,7.69-313.239,7.339-315.941,7.574Z" fill="#00286e"/>
      <path id="Path_930" data-name="Path 930" d="M-306.824,12.962l4.443-9.866-1.059-1.491h3.626l4.685,11.469-2.923-.112-1.178-2.853h-4.783l-1.282,2.853Zm7.143-4.134-1.866-4.93-1.991,4.93Z" fill="#00286e"/>
      <path id="Path_931" data-name="Path 931" d="M-327.873,1.5c3.5,0,6.419,2.516,6.419,5.733s-2.92,5.73-6.419,5.73-6.316-2.511-6.316-5.73,2.8-5.733,6.316-5.733m-3.276,5.84c0,2.77,1.52,4.933,3.276,4.933,1.873,0,3.287-2.163,3.287-4.933,0-2.637-1.414-4.814-3.287-4.814C-329.629,2.525-331.149,4.7-331.149,7.339Z" fill="#00286e"/>
      <path id="Path_932" data-name="Path 932" d="M-261.685,1.5c3.514,0,6.325,2.516,6.325,5.733s-2.811,5.73-6.325,5.73-6.431-2.511-6.431-5.73S-265.2,1.5-261.685,1.5m-3.269,5.84c0,2.77,1.422,4.933,3.269,4.933,1.752,0,3.27-2.163,3.27-4.933,0-2.637-1.518-4.814-3.27-4.814C-263.532,2.525-264.954,4.7-264.954,7.339Z" fill="#00286e"/>
    </g>
    <path id="Path_933" data-name="Path 933" d="M-320.537-29.075c-16.215,0-31.282-16.1-35.088-34.275,14.4-.794,32.112,4.6,40.379,12.885-.574-14.253,5.407-29.341,13.914-37.981,10.489,9.565,14.274,27.752,14.05,37.645,11.971-9.091,24.734-12.432,40.259-11.858-4.131,18.539-18.635,33.95-35.659,33.824l12.758-7.013-16.331,5.063,23.813-20.475-28.3,19.085,6.908-14.381-10.817,14.045,2.307-14.851-7.028,14.5L-300.858-76.1l-2.426,42.886L-310.078-47.6l2.766,14.737-11.144-13.116,6.545,13.928-28.638-19.444,24.377,20.357-15.873-5.414Z" fill="#fca400"/>
  </g>
</svg>
